<?xml version="1.0" encoding="UTF-8" standalone="no"?>
<svg
xmlns:dc="http://purl.org/dc/elements/1.1/"
xmlns:cc="http://creativecommons.org/ns#"
xmlns:rdf="http://www.w3.org/1999/02/22-rdf-syntax-ns#"
xmlns:svg="http://www.w3.org/2000/svg"
xmlns="http://www.w3.org/2000/svg"
xmlns:sodipodi="http://sodipodi.sourceforge.net/DTD/sodipodi-0.dtd"
xmlns:inkscape="http://www.inkscape.org/namespaces/inkscape"
width="959"
height="593"
id="svg2"
sodipodi:version="0.32"
inkscape:version="0.46"
sodipodi:docname="cmusv_floor_level2.svg"
inkscape:output_extension="org.inkscape.output.svg.inkscape">
<metadata
id="metadata62">
<rdf:RDF>
  <cc:Work
  rdf:about="">
	<dc:format>image/svg+xml</dc:format>
	<dc:type
	rdf:resource="http://purl.org/dc/dcmitype/StillImage" />
  </cc:Work>
</rdf:RDF>
</metadata>
<defs
id="defs60">
<inkscape:perspective
sodipodi:type="inkscape:persp3d"
inkscape:vp_x="0 : 296.5 : 1"
inkscape:vp_y="0 : 1000 : 0"
inkscape:vp_z="959 : 296.5 : 1"
inkscape:persp3d-origin="479.5 : 197.66667 : 1"
id="perspective64" />
</defs>
<sodipodi:namedview
inkscape:window-height="814"
inkscape:window-width="1152"
inkscape:pageshadow="2"
inkscape:pageopacity="0.0"
guidetolerance="10.0"
gridtolerance="10.0"
objecttolerance="10.0"
borderopacity="1.0"
bordercolor="#666666"
pagecolor="#ffffff"
id="base"
showgrid="false"
inkscape:zoom="0.70710678"
inkscape:cx="608.50443"
inkscape:cy="298.13957"
inkscape:window-x="-8"
inkscape:window-y="-8"
inkscape:current-layer="svg2"
showguides="true"
inkscape:guide-bbox="true" />
<path id="Background" fill="#FFFFFF" d="M54.382,550.26c0-102.454,0-204.908,0-307.401c168.098,0,336.218,0,504.333,0
		c0,102.47,0,204.936,0,307.401C390.608,550.26,222.506,550.26,54.382,550.26z M251.678,306.968
		c0.27,5.4,0.677,10.554,0.738,15.712c0.05,4.176-0.4,8.355-0.483,12.535c-0.203,10.232-0.349,20.466-0.455,30.699
		c-0.029,2.797,0.28,5.597,0.238,8.393c-0.079,5.201-0.341,10.399-0.441,15.6c-0.027,1.416,0.38,2.84,0.362,4.257
		c-0.051,3.825-0.338,7.648-0.328,11.472c0.041,14.799,0.139,29.598,0.284,44.396c0.016,1.617-0.221,2.495-2.104,2.29
		c-1.423-0.155-2.877-0.067-4.316-0.021c-0.51,0.016-1.02,0.207-1.517,0.358c-0.7,0.213-1.416,0.722-2.077,0.652
		c-2.241-0.237-4.437,0.146-6.771-0.732c-2.218-0.833-4.973-0.244-7.492-0.257c-0.213-0.001-0.448,0.14-0.636,0.269
		c-2.131,1.464-4.567,0.859-6.675,0.399c-1.031-0.225-2.132-0.706-3.274-0.726c-2.607-0.046-2.592-0.023-2.579-2.73
		c0.037-7.738,0.006-15.478,0.128-23.214c0.028-1.787-0.57-2.221-2.252-2.206c-6.95,0.062-13.902,0.017-20.852-0.02
		c-6.477-0.034-12.953-0.126-19.43-0.156c-2.715-0.013-2.713,0.03-2.913-2.573c-0.008-0.105-0.113-0.202-0.288-0.496
		c-0.711,0-1.537-0.014-2.362,0.002c-6.195,0.12-12.389,0.317-18.584,0.335c-2.468,0.007-4.937-0.548-7.406-0.544
		c-4.652,0.008-9.302,0.304-13.955,0.339c-2.003,0.015-4.01-0.48-6.013-0.465c-4.039,0.029-8.076,0.326-12.115,0.358
		c-2.129,0.017-4.258-0.392-6.39-0.433c-4.977-0.096-9.957-0.019-14.932-0.155c-1.657-0.045-2.285,0.462-2.195,2.112
		c0.193,3.51,0.352,7.023,0.413,10.537c0.023,1.358-0.388,2.721-0.378,4.081c0.041,5.384,0.212,10.767,0.243,16.151
		c0.01,1.779-0.39,3.561-0.37,5.339c0.056,4.945,0.303,9.887,0.328,14.832c0.009,1.827-0.576,3.656-0.57,5.483
		c0.015,4.425,0.284,8.849,0.317,13.274c0.016,2.201-0.393,4.404-0.382,6.605c0.023,4.589,0.28,9.177,0.276,13.765
		c-0.002,2.371-0.461,4.738-0.531,7.112c-0.102,3.476-0.076,6.958-0.016,10.436c0.013,0.732,0.432,1.451,0.625,2.186
		c0.218,0.829,0.587,1.677,0.55,2.502c-0.108,2.429-0.356,4.853-0.605,7.274c-0.16,1.55,0.364,2.077,2.004,2.015
		c6.725-0.255,13.455-0.417,20.184-0.496c1.627-0.019,3.261,0.607,4.889,0.594c5.478-0.045,10.955-0.285,16.433-0.357
		c1.313-0.017,2.633,0.496,3.945,0.478c5.103-0.07,10.204-0.316,15.307-0.362c1.633-0.015,3.268,0.536,4.907,0.567
		c5.097,0.096,10.197,0.039,15.294,0.106c1.132,0.015,1.468-0.427,1.457-1.477c-0.028-2.819,0.04-5.64-0.006-8.458
		c-0.018-1.117,0.266-1.605,1.507-1.596c10.052,0.068,20.104,0.058,30.156,0.111c6.699,0.035,13.397,0.149,20.096,0.197
		c5.803,0.041,11.607,0.04,17.41,0.057c6.339,0.018,12.678,0.034,19.017,0.053c7.128,0.022,14.255,0.037,21.383,0.072
		c6.461,0.031,12.921,0.097,19.382,0.124c6.698,0.028,13.396,0.063,20.094,0.028c5.39-0.028,10.78-0.226,16.169-0.221
		c5.629,0.005,11.257,0.185,16.885,0.248c7.786,0.087,15.573,0.174,23.36,0.189c5.814,0.011,11.628-0.154,17.441-0.132
		c8.623,0.033,17.245,0.161,25.868,0.252c0.457,0.005,0.914,0.042,1.484,0.07c0,3.232,0.074,6.341-0.032,9.445
		c-0.051,1.492,0.358,1.955,1.906,1.896c6.807-0.261,13.618-0.445,20.429-0.54c2.129-0.03,4.266,0.469,6.395,0.442
		c4.648-0.058,9.293-0.349,13.941-0.434c1.4-0.026,2.809,0.476,4.209,0.453c5.127-0.085,10.251-0.333,15.378-0.422
		c1.406-0.024,2.816,0.415,4.227,0.434c5.155,0.069,10.312,0.022,15.468,0.088c1.022,0.013,1.392-0.278,1.394-1.303
		c0.007-2.999,0.096-5.997,0.123-8.996c0.004-0.389-0.17-0.779-0.262-1.168c-0.13,0.014-0.26,0.028-0.39,0.043
		c-0.098,0.633-0.195,1.265-0.293,1.897c-0.179-1.523-0.183-3.016-0.179-4.51c0.033-13.492,0.079-26.985,0.098-40.477
		c0.02-13.971,0.018-27.942,0.02-41.913c0.001-8.391-0.054-16.783,0.028-25.173c0.016-1.67-0.424-2.174-2.107-2.117
		c-6.738,0.23-13.481,0.365-20.223,0.452c-1.597,0.021-3.2-0.428-4.797-0.405c-4.537,0.066-9.071,0.329-13.608,0.381
		c-2.005,0.023-4.014-0.393-6.022-0.411c-6.617-0.058-13.234-0.029-19.851-0.027c-4.979,0.001-9.959-0.014-14.937,0.062
		c-0.474,0.007-1.374,0.666-1.341,0.929c0.28,2.212-0.962,2.127-2.59,2.123c-13.676-0.036-27.353,0.057-41.029-0.008
		c-1.791-0.008-2.239,0.482-2.225,2.191c0.066,7.978,0.019,15.957,0.004,23.935c-0.001,0.629-0.072,1.258-0.099,1.712
		c-2.864,0.406-5.468,0.995-8.088,1.075c-2.071,0.064-4.154-0.654-6.244-0.747c-4.133-0.185-8.274-0.214-12.412-0.222
		c-0.895-0.002-1.798,0.547-2.685,0.514c-2.172-0.081-4.334-0.441-6.506-0.518c-1.267-0.045-1.749-0.512-1.638-1.729
		c0.114-1.25,0.27-2.503,0.28-3.756c0.047-6.219,0.072-12.439,0.068-18.658c-0.009-15.644-0.064-31.288-0.045-46.932
		c0.007-5.628,0.27-11.257,0.243-16.885c-0.049-10.484-0.251-20.968-0.341-31.452c-0.071-8.328-0.035-16.657-0.117-24.985
		c-0.031-3.151-0.121-3.196-3.425-3.219c-1.209-0.008-1.697-0.333-1.69-1.63c0.062-11.398,0.059-22.797,0.098-34.195
		c0.006-1.879-0.184-2.066-2.314-1.69c0,0.393,0.001,0.806,0,1.218c-0.017,11.518-0.023,23.036-0.088,34.554
		c-0.003,0.557-0.454,1.529-0.825,1.595c-1.741,0.314-3.53,0.531-5.297,0.503c-5.375-0.086-10.748-0.333-16.123-0.455
		c-4.323-0.098-4.324-0.057-4.323-4.373c0.001-2.263-0.011-2.311-2.267-1.733c-0.734,0.188-1.493,0.576-2.054,1.08
		c-1.16,1.042-2.196,2.224-3.445,3.517c-0.278-0.429-0.496-0.997-0.901-1.349c-1.448-1.257-2.85-2.623-4.481-3.593
		c-1.261-0.75-1.999-0.128-2.035,1.364c-0.039,1.602-0.009,3.206-0.009,4.79c-3.585,0.231-6.945,0.625-10.303,0.617
		c-4.164-0.009-8.328-0.342-12.49-0.555c-1.589-0.081-3.918,0.365-4.576-0.474c-0.827-1.055-0.437-3.196-0.291-4.844
		c0.166-1.881-0.92-4.099,1.281-5.553c0.196-0.13,0.155-0.68,0.156-1.036c0.026-8.039,0.054-16.078,0.034-24.117
		c-0.001-0.569-0.373-1.136-0.573-1.704c-0.214,0.052-0.427,0.103-0.641,0.155c0,8.493,0,16.987,0,25.481
		c-0.15-0.001-0.299-0.001-0.448-0.002c0-8.502,0-17.005,0-25.507c-0.199-0.032-0.399-0.064-0.598-0.095
		c-0.132,0.731-0.374,1.462-0.378,2.193c-0.035,7.499-0.025,14.997-0.049,22.496c-0.002,0.634-0.155,1.267-0.238,1.901
		c-0.187-0.006-0.373-0.013-0.56-0.019c-0.055-0.673-0.157-1.346-0.156-2.019c0.007-7.439,0.031-14.877,0.048-22.316
		c0.005-2.049-0.058-1.792-1.954-1.627c-3.144,0.273-6.351,0.307-9.488-0.004c-2.014-0.2-2.025-0.535-2.03,1.638
		c-0.017,6.412-0.003,12.824-0.034,19.236c-0.025,5.158-0.095,10.316-0.148,15.474c-0.03,2.902-0.033,2.91,2.778,2.929
		C247.552,306.979,249.635,306.968,251.678,306.968z M292.814,289.945c0-0.012,0-0.025,0-0.037c-1.617,0-3.234,0.015-4.85-0.003
		c-3.793-0.041-3.793-0.048-3.916,3.792c-0.071,2.205,0.327,2.659,2.524,2.684c3.473,0.04,6.946,0.078,10.419,0.042
		c4.806-0.049,4.506,0.859,4.414-4.747c-0.02-1.19-0.563-1.749-1.764-1.738C297.365,289.96,295.089,289.945,292.814,289.945z"/>
<path d="M251.678,306.968c-2.043,0-4.126,0.011-6.209-0.003c-2.811-0.019-2.808-0.027-2.778-2.929
		c0.053-5.158,0.123-10.316,0.148-15.474c0.031-6.412,0.017-12.824,0.034-19.236c0.006-2.172,0.017-1.838,2.03-1.638
		c3.137,0.311,6.344,0.277,9.488,0.004c1.896-0.165,1.958-0.422,1.954,1.627c-0.017,7.439-0.041,14.877-0.048,22.316
		c-0.001,0.673,0.102,1.346,0.156,2.019c0.187,0.006,0.373,0.013,0.56,0.019c0.083-0.634,0.236-1.267,0.238-1.901
		c0.024-7.499,0.014-14.997,0.049-22.496c0.003-0.732,0.246-1.462,0.378-2.193c0.199,0.032,0.399,0.064,0.598,0.095
		c0,8.502,0,17.005,0,25.507c0.15,0.001,0.299,0.001,0.448,0.002c0-8.494,0-16.987,0-25.481c0.214-0.051,0.427-0.103,0.641-0.155
		c0.2,0.568,0.571,1.136,0.573,1.704c0.02,8.039-0.009,16.078-0.034,24.117c-0.001,0.355,0.041,0.906-0.156,1.036
		c-2.201,1.453-1.115,3.672-1.281,5.553c-0.145,1.648-0.535,3.789,0.291,4.844c0.658,0.839,2.987,0.393,4.576,0.474
		c4.163,0.213,8.326,0.546,12.49,0.555c3.358,0.008,6.717-0.387,10.303-0.617c0-1.584-0.03-3.188,0.009-4.79
		c0.036-1.492,0.774-2.114,2.035-1.364c1.631,0.97,3.034,2.336,4.481,3.593c0.405,0.352,0.623,0.92,0.901,1.349
		c1.25-1.293,2.285-2.474,3.445-3.517c0.561-0.504,1.32-0.892,2.054-1.08c2.256-0.577,2.268-0.53,2.267,1.733
		c-0.001,4.316,0,4.276,4.323,4.373c5.375,0.122,10.748,0.369,16.123,0.455c1.767,0.028,3.556-0.19,5.297-0.503
		c0.371-0.067,0.822-1.038,0.825-1.595c0.065-11.518,0.071-23.036,0.088-34.554c0.001-0.413,0-0.825,0-1.218
		c2.13-0.375,2.32-0.189,2.314,1.69c-0.039,11.398-0.036,22.797-0.098,34.195c-0.007,1.298,0.482,1.622,1.69,1.63
		c3.304,0.022,3.394,0.068,3.425,3.219c0.082,8.328,0.046,16.657,0.117,24.985c0.089,10.484,0.291,20.968,0.341,31.452
		c0.027,5.628-0.236,11.256-0.243,16.885c-0.019,15.644,0.036,31.288,0.045,46.932c0.004,6.219-0.021,12.439-0.068,18.658
		c-0.01,1.253-0.166,2.505-0.28,3.756c-0.111,1.217,0.371,1.685,1.638,1.729c2.172,0.077,4.334,0.436,6.506,0.518
		c0.887,0.033,1.79-0.516,2.685-0.514c4.138,0.008,8.28,0.037,12.412,0.222c2.09,0.094,4.173,0.811,6.244,0.747
		c2.62-0.081,5.224-0.67,8.088-1.075c0.028-0.453,0.098-1.082,0.099-1.712c0.016-7.979,0.062-15.957-0.004-23.935
		c-0.014-1.709,0.434-2.199,2.225-2.191c13.676,0.065,27.353-0.028,41.029,0.008c1.628,0.004,2.87,0.09,2.59-2.123
		c-0.033-0.263,0.867-0.922,1.341-0.929c4.978-0.076,9.958-0.061,14.937-0.062c6.617-0.002,13.234-0.031,19.851,0.027
		c2.009,0.018,4.017,0.433,6.022,0.411c4.537-0.051,9.071-0.315,13.608-0.381c1.597-0.023,3.2,0.425,4.797,0.405
		c6.742-0.087,13.484-0.222,20.223-0.452c1.683-0.057,2.123,0.447,2.107,2.117c-0.082,8.39-0.027,16.782-0.028,25.173
		c-0.002,13.971,0,27.942-0.02,41.913c-0.019,13.492-0.065,26.985-0.098,40.477c-0.004,1.494,0,2.988,0.179,4.51
		c0.098-0.633,0.195-1.265,0.293-1.897c0.13-0.014,0.26-0.028,0.39-0.043c0.092,0.389,0.266,0.78,0.262,1.168
		c-0.027,2.999-0.117,5.997-0.123,8.996c-0.002,1.025-0.373,1.316-1.394,1.303c-5.155-0.066-10.312-0.019-15.468-0.088
		c-1.411-0.019-2.821-0.458-4.227-0.434c-5.127,0.089-10.251,0.337-15.378,0.422c-1.4,0.023-2.81-0.479-4.209-0.453
		c-4.648,0.086-9.293,0.376-13.941,0.434c-2.13,0.027-4.266-0.472-6.395-0.442c-6.811,0.095-13.622,0.279-20.429,0.54
		c-1.549,0.059-1.957-0.404-1.906-1.896c0.106-3.103,0.032-6.213,0.032-9.445c-0.569-0.028-1.026-0.065-1.484-0.07
		c-8.623-0.091-17.245-0.219-25.868-0.252c-5.813-0.022-11.627,0.143-17.441,0.132c-7.787-0.015-15.574-0.102-23.36-0.189
		c-5.629-0.063-11.257-0.243-16.885-0.248c-5.39-0.005-10.779,0.193-16.169,0.221c-6.698,0.035-13.396,0-20.094-0.028
		c-6.461-0.027-12.921-0.093-19.382-0.124c-7.127-0.034-14.255-0.05-21.383-0.072c-6.339-0.019-12.678-0.035-19.017-0.053
		c-5.803-0.017-11.607-0.015-17.41-0.057c-6.699-0.048-13.397-0.162-20.096-0.197c-10.052-0.052-20.104-0.042-30.156-0.111
		c-1.241-0.008-1.525,0.48-1.507,1.596c0.046,2.819-0.022,5.639,0.006,8.458c0.01,1.05-0.325,1.492-1.457,1.477
		c-5.098-0.067-10.197-0.011-15.294-0.106c-1.639-0.031-3.273-0.581-4.907-0.567c-5.103,0.047-10.204,0.293-15.307,0.362
		c-1.313,0.018-2.632-0.495-3.945-0.478c-5.478,0.072-10.955,0.312-16.433,0.357c-1.628,0.013-3.262-0.613-4.889-0.594
		c-6.729,0.079-13.459,0.241-20.184,0.496c-1.64,0.062-2.164-0.465-2.004-2.015c0.249-2.42,0.497-4.845,0.605-7.274
		c0.037-0.825-0.332-1.673-0.55-2.502c-0.194-0.735-0.613-1.454-0.625-2.186c-0.06-3.478-0.086-6.96,0.016-10.436
		c0.069-2.374,0.528-4.741,0.531-7.112c0.004-4.588-0.253-9.176-0.276-13.765c-0.011-2.201,0.399-4.404,0.382-6.605
		c-0.032-4.425-0.302-8.849-0.317-13.274c-0.006-1.827,0.579-3.656,0.57-5.483c-0.025-4.944-0.272-9.887-0.328-14.832
		c-0.02-1.778,0.38-3.56,0.37-5.339c-0.031-5.384-0.202-10.767-0.243-16.151c-0.01-1.359,0.402-2.723,0.378-4.081
		c-0.061-3.514-0.22-7.028-0.413-10.537c-0.091-1.65,0.538-2.157,2.195-2.112c4.975,0.135,9.956,0.059,14.932,0.155
		c2.132,0.041,4.262,0.45,6.39,0.433c4.039-0.032,8.076-0.329,12.115-0.358c2.003-0.015,4.01,0.48,6.013,0.465
		c4.652-0.035,9.303-0.332,13.955-0.339c2.468-0.004,4.938,0.552,7.406,0.544c6.195-0.018,12.389-0.215,18.584-0.335
		c0.825-0.016,1.651-0.002,2.362-0.002c0.175,0.294,0.28,0.392,0.288,0.496c0.2,2.602,0.198,2.56,2.913,2.573
		c6.477,0.03,12.953,0.122,19.43,0.156c6.951,0.037,13.902,0.082,20.852,0.02c1.683-0.015,2.281,0.42,2.252,2.206
		c-0.123,7.737-0.091,15.476-0.128,23.214c-0.013,2.707-0.028,2.684,2.579,2.73c1.142,0.02,2.243,0.501,3.274,0.726
		c2.108,0.46,4.544,1.064,6.675-0.399c0.188-0.129,0.423-0.27,0.636-0.269c2.519,0.013,5.274-0.577,7.492,0.257
		c2.334,0.877,4.53,0.495,6.771,0.732c0.661,0.07,1.377-0.439,2.077-0.652c0.498-0.151,1.008-0.342,1.517-0.358
		c1.438-0.046,2.892-0.134,4.316,0.021c1.883,0.205,2.119-0.673,2.104-2.29c-0.145-14.798-0.243-29.597-0.284-44.396
		c-0.011-3.823,0.277-7.647,0.328-11.472c0.019-1.417-0.389-2.841-0.362-4.257c0.1-5.201,0.362-10.399,0.441-15.6
		c0.043-2.796-0.267-5.597-0.238-8.393c0.105-10.234,0.252-20.467,0.455-30.699c0.083-4.18,0.532-8.359,0.483-12.535
		C252.355,317.522,251.948,312.368,251.678,306.968z M248.449,505.335c1.34,0,2.466-0.024,3.592,0.007
		c1.012,0.028,1.427-0.436,1.325-1.421c-0.171-1.66,0.748-2.023,2.199-1.999c4.138,0.067,8.278,0.048,12.417,0.07
		c1.981,0.01,2.236,0.379,2.066,2.335c-0.273,3.146-0.611,6.301-0.625,9.453c-0.024,5.443,0.242,10.887,0.252,16.332
		c0.004,1.808,0.778,2.309,2.392,2.214c2.555-0.151,5.114-0.32,7.672-0.336c5.838-0.035,11.676,0.003,17.514,0.041
		c3.538,0.023,7.077,0.078,10.614,0.171c0.957,0.025,1.909,0.238,2.817,0.359c-0.141-1.327-0.342-2.378-0.347-3.429
		c-0.014-3.178,0.046-6.357,0.08-9.535c0.054-5.097,0.092-10.195,0.19-15.291c0.01-0.519,0.268-1.382,0.599-1.486
		c1.276-0.4,2.628-0.768,3.952-0.767c6.169,0.004,12.338,0.177,18.507,0.212c13.719,0.076,27.439,0.055,41.157,0.178
		c5.608,0.05,11.212,0.422,16.82,0.53c1.639,0.032,3.286-0.501,4.929-0.498c5.69,0.01,11.359-0.261,17.057,0.739
		c3.815,0.669,3.859,0.167,3.915-3.705c0.077-5.291,0.293-10.581,0.332-15.872c0.064-8.518,0.071-17.036,0.016-25.553
		c-0.015-2.242-0.346-4.482-0.545-6.88c-0.694,0-1.339,0-1.985,0c-2.948,0.001-3.44,0.636-2.774,3.576
		c0.369,1.629-0.692,3.06-2.345,2.997c-1.241-0.047-2.472-0.324-3.712-0.459c-1.323-0.144-1.923,0.334-1.911,1.811
		c0.043,5.338-0.043,10.677-0.059,16.016c-0.001,0.303,0.185,0.606,0.284,0.909c0.152,0.013,0.304,0.026,0.457,0.039
		c0.131-0.545,0.366-1.089,0.376-1.636c0.043-2.338-0.023-4.679,0.046-7.017c0.022-0.735,0.101-1.73,0.566-2.142
		c1.488-1.321,3.138-2.396,5.362-1.602c1.12,0.4,2.387,0.397,3.49,0.828c0.561,0.219,1.267,0.986,1.285,1.525
		c0.122,3.833,0.136,7.673,0.037,11.507c-0.015,0.57-0.695,1.452-1.244,1.623c-3.1,0.967-6.254,1.854-9.18-0.565
		c-0.386-0.319-0.888-0.497-1.636-0.902c0,2.01,0.042,3.739-0.016,5.465c-0.036,1.074,0.362,1.551,1.45,1.522
		c1.319-0.036,2.64,0.008,3.959-0.009c1.158-0.014,2.273,0.077,2.279,1.6c0.006,1.588-1.092,1.73-2.361,1.712
		c-7.845-0.114-15.69-0.199-23.536-0.283c-5.013-0.054-10.026-0.149-15.038-0.113c-3.564,0.026-7.126,0.34-10.689,0.348
		c-10.552,0.024-21.104-0.032-31.655-0.08c-1.725-0.008-3.568,0.236-5.147-0.28c-2.706-0.885-5.279-1.089-7.907-0.035
		c-1.782,0.715-2.984,0-3.005-1.885c-0.004-0.337-0.001-0.674-0.001-1.011c-0.673,1.253-1.141,2.654-3.028,1.917
		c-0.093-0.036-0.287,0.148-0.418,0.249c-1.735,1.345-2.343,1.339-3.762,0.009c-1.981,1.365-4.169,0.673-6.261,0.714
		c-0.136,0.003-0.286-0.201-0.412-0.326c-1.574-1.561-0.823-3.525-0.724-5.29c0.03-0.538,1.322-1.004,2.412-1.766
		c0-0.152-0.001-0.798,0-1.443c0.007-6.059,0.046-12.118-0.008-18.177c-0.011-1.201,0.764-2.831-1.26-3.365
		c-0.133-0.035-0.118-0.547-0.212-0.824c-0.568-1.661,0.889-2.399,1.576-3.489c1.033-1.639,3.118-1.661,4.27-0.123
		c0.33,0.441,0.982,0.903,1.491,0.908c7.498,0.07,14.996,0.076,22.494,0.044c0.406-0.002,1.098-0.417,1.167-0.743
		c0.341-1.616,0.707-3.266,0.722-4.907c0.143-15.771,0.253-31.543,0.302-47.315c0.059-18.896,0.05-37.792,0.061-56.688
		c0-0.393-0.113-0.785-0.176-1.196c-0.345-0.032-0.58-0.072-0.815-0.073c-9.895-0.054-19.791-0.08-29.686-0.212
		c-0.683-0.009-1.789-0.691-1.937-1.258c-0.265-1.017,0.591-1.565,1.672-1.561c0.215,0.001,0.43-0.126,0.783-0.238
		c0-6.336-0.038-12.629,0.025-18.921c0.017-1.706,0.456-3.408,0.485-5.115c0.032-1.892-0.04-3.813-0.356-5.673
		c-0.151-0.89-0.968-1.667-1.483-2.495c0.093-0.2,0.187-0.401,0.28-0.601c-3.879,0-7.759-0.006-11.638,0.014
		c-0.266,0.001-0.706,0.139-0.769,0.318c-0.564,1.608-1.363,3.214-1.506,4.871c-0.194,2.241,0.204,4.527,0.217,6.795
		c0.038,6.479,0.02,12.958-0.002,19.437c-0.003,1.003,0.036,1.801,1.39,1.704c1.077-0.077,1.421,0.715,1.13,1.533
		c-0.177,0.499-0.857,1.087-1.368,1.146c-1.115,0.129-2.265-0.102-3.401-0.102c-8.336-0.001-16.672,0.029-25.009,0.026
		c-3.319-0.001-3.322-0.028-3.334,3.269c-0.094,26.575-0.188,53.15-0.278,79.726c-0.026,7.799-0.053,15.597-0.052,23.396
		c0,2.424,1.089,3.505,3.468,3.531c6.898,0.076,13.795,0.167,20.693,0.168c0.942,0,1.88-0.498,2.829-0.731
		c1.204-0.296,2.447-0.793,3.407,0.539c0.47,0.652,0.923,1.33,1.476,1.908c1.063,1.109,0.909,2.255-0.353,3.112
		c-0.443,0.301-0.83,0.906-0.933,1.434c-0.159,0.81-0.085,1.673-0.048,2.511c0.07,1.553-0.485,2.32-2.195,2.248
		c-2.272-0.096-2.6-0.329-2.59-2.604c0.003-0.66-0.067-1.328,0.014-1.977c0.165-1.336-0.506-1.645-1.68-1.629
		c-2.639,0.035-5.281,0.044-7.918-0.038c-1.403-0.044-1.944,0.446-1.836,1.874c0.201,2.674,0.425,5.359,0.396,8.036
		c-0.044,4.122-0.319,8.24-0.442,12.362c-0.047,1.581-0.549,3.616,2.303,3.107c0.103-0.018,0.272,0.035,0.331,0.113
		c1.01,1.344,2.447,1.084,3.774,0.893c0.989-0.142,1.985-0.975,2.886-0.848c2.597,0.364,2.106-1.318,2.111-2.758
		c0.001-0.42,0-0.84,0.015-1.26c0.075-2.079,0.346-2.214,2.49-2.33c1.779-0.096,2.581,0.424,2.324,2.308
		c-0.14,1.023-0.147,2.055,1.436,2.119c0.359,0.015,0.896,0.915,0.972,1.46c0.148,1.057,0,2.153,0.025,3.232
		c0.035,1.491-0.541,2.126-2.142,2.065c-3.354-0.128-6.716-0.076-10.074-0.097c-10.007-0.063-20.018-0.002-30.021-0.229
		c-7.633-0.173-15.265,0.495-22.916-0.579c-3.683-0.517-7.57,0.641-11.34,0.477c-4.94-0.215-9.879,0.751-14.877-0.765
		c-2.404-0.729-5.379,0.608-8.107,0.719c-3.653,0.149-7.317,0.014-10.976,0.008c-2.862-0.005-5.725-0.001-8.379-0.001
		c-1.86,4.692-1.485,9.379-0.463,14.194c0.063,0.017,0.284,0.131,0.505,0.132c9.814,0.039,19.627,0.057,29.441,0.101
		c7.317,0.032,14.633,0.094,21.95,0.144c4.865,0.033,9.73,0.072,14.596,0.103c3.719,0.023,7.438,0.058,11.158,0.046
		c1.299-0.004,1.886,0.569,1.829,1.851C248.434,504.199,248.449,504.615,248.449,505.335z M111.274,482.266
		c0,0.082,0,0.164,0,0.245c6.71,0,13.42-0.01,20.13,0.006c2.428,0.006,3.169-0.61,3.098-3.121c-0.056-1.997-0.52-3.984-0.569-5.98
		c-0.152-6.278-0.225-12.558-0.266-18.838c-0.022-3.35-0.19-6.732,0.193-10.043c0.654-5.651-0.173-11.383,1.266-17.007
		c0.563-2.202-0.366-2.85-2.708-2.835c-5.19,0.032-10.381,0.19-15.571,0.146c-3.203-0.027-6.403-0.465-9.606-0.477
		c-3.799-0.014-7.599,0.257-11.4,0.355c-1.857,0.048-3.718,0.011-5.576-0.039c-1.373-0.037-1.93,0.549-1.913,1.94
		c0.039,3.29-0.022,6.582-0.038,9.873c-0.052,10.795-0.137,21.59-0.135,32.384c0.001,3.868,0.285,7.735,0.294,11.603
		c0.004,1.643,0.8,1.815,2.125,1.807C97.49,482.245,104.382,482.266,111.274,482.266z M111.656,540.121c0,0.05,0,0.1,0,0.151
		c7.073,0,14.147-0.033,21.22,0.032c1.208,0.011,1.482-0.49,1.412-1.48c-0.17-2.396-0.209-4.764-0.61-7.187
		c-0.706-4.261-0.569-8.697-0.454-13.051c0.201-7.582,0.718-15.155,0.966-22.737c0.093-2.851-0.271-5.714-0.274-8.572
		c-0.001-1.388-0.394-1.91-1.837-1.882c-5.078,0.099-10.16,0.16-15.238,0.11c-8.803-0.088-17.606-0.228-26.406-0.449
		c-1.59-0.04-2.15,0.724-2.388,2.004c-0.119,0.639-0.048,1.315-0.052,1.974c-0.068,9.947-0.117,19.893-0.21,29.84
		c-0.046,4.913-0.201,9.825-0.239,14.737c-0.007,0.903,0.236,1.83,0.494,2.707c0.191,0.65,0.89,1.261,0.845,1.849
		c-0.128,1.672,0.58,1.999,2.092,1.984C97.868,540.083,104.762,540.121,111.656,540.121z M164.458,425.431
		c-5.379-0.258-10.488-0.608-15.602-0.712c-3.615-0.073-7.237,0.235-10.856,0.272c-1.242,0.013-1.54,0.532-1.476,1.633
		c0.175,3.028,0.392,6.058,0.424,9.088c0.047,4.438-0.067,8.877-0.072,13.316c-0.001,0.562,0.063,1.276,0.397,1.658
		c1.129,1.29,0.74,2.598,0.305,3.96c-0.262,0.82-0.69,1.649-0.702,2.479c-0.079,5.397-0.06,10.796-0.086,16.195
		c-0.002,0.474,0.083,1.08-0.165,1.398c-1.342,1.724-0.662,3.699-0.753,5.561c-0.024,0.491,0.387,1.291,0.803,1.467
		c1.995,0.843,1.442,2.71,0.902,3.63c-1.383,2.354-1.427,4.98-1.692,7.424c-0.324,2.987,0.344,6.091,0.706,9.13
		c0.044,0.368,0.832,0.891,1.303,0.921c1.971,0.126,3.953,0.082,5.931,0.118c6.113,0.111,12.227,0.232,18.34,0.346
		c0.986,0.019,1.939,0.104,1.97-1.382c0.058-2.809,0.304-5.615,0.328-8.423c0.015-1.781-0.349-3.564-0.339-5.345
		c0.086-16.01,0.226-32.019,0.331-48.029C164.485,435.217,164.458,430.298,164.458,425.431z M447.842,425.612
		c0,10.509,0,20.57,0,30.631c0,7.542,0.03,15.084-0.013,22.626c-0.021,3.711-0.192,7.422-0.268,11.133
		c-0.024,1.186-0.505,1.803-1.751,1.69c-0.357-0.032-0.719-0.007-1.079-0.01c-6.596-0.058-13.193-0.122-19.789-0.169
		c-0.806-0.006-1.74-0.226-1.75,1.143c-0.037,5.151-0.091,10.302-0.214,15.452c-0.031,1.306,0.424,1.616,1.678,1.573
		c4.592-0.16,9.188-0.289,13.783-0.274c9.172,0.03,18.344,0.153,27.515,0.269c1.242,0.016,1.665-0.442,1.64-1.696
		c-0.067-3.355-0.022-6.712-0.002-10.068c0.078-13.323,0.175-26.645,0.24-39.968c0.037-7.762,0.026-15.524,0.035-23.286
		c0.003-2.911,0-5.822,0-9.046C461.108,425.612,454.566,425.612,447.842,425.612z M474.795,512.155c0,0.005,0,0.009,0,0.014
		c-1.018,0-2.036,0.005-3.053-0.001c-5.755-0.033-11.51-0.075-17.264-0.096c-0.854-0.003-1.833-0.262-1.897,1.201
		c-0.133,3.041-0.292,6.087-0.613,9.112c-0.614,5.792,0.704,11.454,0.975,17.183c0.065,1.371,0.925,1.321,1.847,1.322
		c13.365,0.015,26.73,0.011,40.094,0.065c1.509,0.006,1.937-0.552,1.926-2.004c-0.05-7.058-0.012-14.116,0-21.174
		c0.002-1.433,0.013-2.867,0.042-4.3c0.02-0.963-0.33-1.352-1.382-1.345C488.578,512.177,481.686,512.155,474.795,512.155z
		 M164.741,540.413c0-1.382,0.114-2.642-0.026-3.872c-0.22-1.94-0.85-3.856-0.881-5.789c-0.077-4.794,0.151-9.593,0.133-14.389
		c-0.012-3.26-0.233-6.519-0.361-9.783c-0.41-0.065-0.641-0.131-0.873-0.135c-8.213-0.134-16.426-0.272-24.64-0.366
		c-0.509-0.006-1.474,0.367-1.466,0.526c0.106,2.183-0.796,4.391,0.533,6.585c0.535,0.884,0.184,2.374,0.051,3.567
		c-0.081,0.726-0.753,1.413-0.754,2.118c-0.009,5.76-0.435,11.538,0.683,17.26c0.18,0.921,0.027,1.915-0.034,2.872
		c-0.064,1.012,0.314,1.333,1.358,1.328c4.854-0.023,9.708,0.054,14.561,0.075C156.848,540.426,160.67,540.413,164.741,540.413z
		 M275.861,309.082c-6.134,0-12.341-0.022-18.547,0.06c-0.341,0.004-0.935,0.854-0.965,1.338
		c-0.268,4.346-0.583,8.697-0.593,13.047c-0.01,4.768,0.371,9.536,0.404,14.305c0.01,1.459,0.392,1.858,1.799,1.855
		c7.793-0.014,15.586,0.057,23.379,0.079c1.344,0.004,2.211-0.375,2.193-2.075c-0.078-7.526-0.034-15.053-0.034-22.951
		c-1.667,0-3.616-0.061-5.56,0.021c-1.389,0.059-2.025-0.566-2.067-1.865C275.827,311.59,275.861,310.28,275.861,309.082z
		 M303.815,339.81c9.012,0,17.792,0,26.662,0c0-1.364-0.071-2.616,0.028-3.854c0.054-0.674,0.377-1.331,0.612-1.984
		c0.262-0.727,0.782-1.433,0.807-2.161c0.109-3.116,0.086-6.237,0.088-9.356c0-0.397-0.018-1.059-0.226-1.151
		c-1.73-0.764-1.276-2.266-1.274-3.582c0.002-2.337,0.095-4.675,0.11-7.012c0.003-0.442-0.181-0.886-0.279-1.328
		c-0.163,0.008-0.327,0.016-0.49,0.025c-0.165,0.585-0.331,1.17-0.549,1.943c-1.292,0-2.599-0.025-3.905,0.008
		c-1.026,0.026-1.703-0.212-1.89-1.412c-0.063-0.408-0.76-1.016-1.178-1.025c-3.726-0.08-7.454-0.047-11.319-0.047
		c1.061,1.217,1.523,4.019,0.816,5.172c-0.25,0.408-0.93,0.756-1.427,0.774c-2.245,0.082-4.494,0.036-6.587,0.036
		C303.815,323.06,303.815,331.363,303.815,339.81z M436.137,540.883c0-0.002,0-0.004,0-0.006c3.89,0,7.781-0.022,11.671,0.013
		c1.29,0.012,1.767-0.455,1.755-1.803c-0.02-2.309-0.528-4.582-0.069-6.947c0.359-1.848,0.147-3.824,0.062-5.738
		c-0.198-4.477-0.442-8.953-0.769-13.422c-0.029-0.397-0.795-1.058-1.223-1.061c-7.671-0.056-15.342-0.03-23.013-0.021
		c-1.122,0.001-1.603,0.564-1.593,1.685c0.026,2.735-0.023,5.471,0.008,8.206c0.022,1.904,0.185,3.807,0.18,5.71
		c-0.011,3.774-0.076,7.547-0.157,11.32c-0.033,1.538,0.656,2.109,2.175,2.083C428.821,540.841,432.479,540.883,436.137,540.883z
		 M249.533,527.158c0.224-0.005,0.447-0.01,0.671-0.016c0.042,0.515,0.118,1.029,0.12,1.544c0.014,3.838,0.157,3.972,3.923,3.567
		c0.119-0.013,0.281,0.026,0.351-0.038c0.363-0.334,0.993-0.685,1.003-1.045c0.081-2.97,0.046-5.944,0.046-9.014
		c-1.794,0-3.332,0-5.06,0c-0.063,0.696-0.132,1.386-0.187,2.077c-0.058,0.724-0.102,1.448-0.153,2.172
		c-0.199,0.007-0.397,0.014-0.596,0.022c-0.097-1.46-0.193-2.92-0.289-4.365c-3.978,0-7.747-0.04-11.514,0.013
		c-2.699,0.038-2.764,0.028-2.708-2.605c0.019-0.899,0.067-1.801,0.025-2.697c-0.166-3.536-0.394-7.069-0.525-10.605
		c-0.035-0.94-0.392-1.267-1.28-1.283c-2.218-0.04-4.439-0.23-6.651-0.15c-1.129,0.041-2.509-0.181-3.1,1.475
		c-0.13,0.365-1.479,0.295-2.267,0.425c-0.025-0.203-0.05-0.406-0.075-0.608c0.584-0.171,1.167-0.341,1.751-0.512
		c-0.028-0.15-0.056-0.3-0.084-0.449c-3.523,0-7.046,0-10.748,0c0.341,0.518,0.572,0.868,0.534,0.81
		c-0.445,0.991-0.899,1.589-0.961,2.224c-0.128,1.307-0.002,2.637-0.065,3.953c-0.054,1.126,0.455,1.467,1.508,1.427
		c1.477-0.055,2.957-0.014,4.435-0.01c2.432,0.006,2.519,0.126,2.453,3.342c-0.04,1.953-0.301,2.147-2.633,2.083
		c-1.459-0.041-2.926,0.037-4.377-0.081c-1.177-0.096-1.494,0.422-1.432,1.452c0.029,0.478,0.033,0.961,0,1.438
		c-0.075,1.073,0.371,1.501,1.471,1.462c1.657-0.06,3.323,0.08,4.978-0.004c2.027-0.104,1.967,1.199,1.998,2.6
		c0.032,1.461-0.41,2.338-2.051,2.17c-0.594-0.061-1.196-0.094-1.793-0.084c-1.375,0.024-2.751,0.047-4.12,0.159
		c-0.227,0.019-0.533,0.455-0.606,0.748c-0.598,2.407,0.154,3.417,2.674,3.374c2.73-0.046,5.458-0.389,8.184-0.36
		c4.661,0.05,9.319,0.347,13.981,0.433c4.281,0.079,8.564,0.017,13.172,0.017C249.533,530.365,249.533,528.762,249.533,527.158z
		 M497.131,467.942c-0.327-0.16-0.432-0.257-0.538-0.257c-8.265-0.047-16.53-0.093-24.794-0.104c-0.345,0-0.909,0.264-0.999,0.53
		c-0.421,1.245-0.962,2.53-0.986,3.809c-0.03,1.6,0.565,3.205,0.606,4.815c0.088,3.466,0.027,6.938-0.037,10.406
		c-0.036,1.919,0.552,2.568,2.524,2.565c7.19-0.012,14.38-0.025,21.57-0.019c2.366,0.002,2.634-0.177,2.645-2.514
		C497.15,480.772,497.131,474.371,497.131,467.942z M355.696,519.152c0.084,0,0.167,0,0.251,0c0-4.013-0.024-8.026,0.016-12.038
		c0.01-1.036-0.283-1.418-1.397-1.535c-4.318-0.453-8.813,1.117-12.997-1.362c-1.043-0.618-2.704-0.244-4.08-0.234
		c-1.178,0.009-2.799,1.852-2.754,3.041c0.07,1.845,0.239,3.691,0.221,5.534c-0.062,6.165-0.163,12.33-0.308,18.493
		c-0.035,1.502,0.754,1.671,1.93,1.546c1.241-0.132,2.489-0.328,3.73-0.301c4.535,0.098,9.07,0.231,13.6,0.454
		c1.389,0.068,1.812-0.448,1.801-1.739C355.673,527.058,355.696,523.105,355.696,519.152z M397.437,471.058c0.06,0,0.121,0,0.181,0
		c0-3.655-0.01-7.311,0.004-10.966c0.009-2.394-0.332-2.813-2.803-2.75c-2.247,0.058-4.491,0.428-6.734,0.4
		c-2.545-0.032-5.083-0.385-7.628-0.543c-2.813-0.175-3.309,0.278-3.335,3.05c-0.059,6.294-0.132,12.588-0.096,18.882
		c0.009,1.569-0.348,3.02,1.117,4.657c1.435,1.604,2.766,2.458,4.709,2.55c1.771,0.084,3.418-0.069,5.226-0.793
		c2.203-0.883,4.864-0.746,7.332-0.797c1.519-0.031,2.123-0.334,2.069-2.003C397.35,478.853,397.437,474.954,397.437,471.058z
		 M470.777,425.22c0.065,1.096,0.159,1.921,0.156,2.746c-0.017,4.669-0.067,9.337-0.088,14.006
		c-0.021,4.695,0.096,4.896,4.666,4.949c6.706,0.077,13.414,0.007,20.121,0.031c1.063,0.004,1.616-0.171,1.604-1.472
		c-0.062-6.403-0.031-12.808,0.005-19.212c0.007-1.171-0.616-1.166-1.508-1.152c-4.51,0.069-9.022,0.086-13.532,0.103
		C478.443,425.231,474.687,425.22,470.777,425.22z M330.004,457.853c-0.024,0.362-0.082,0.825-0.081,1.289
		c0.003,2.595,0.008,2.588-2.584,2.583c-3.298-0.007-6.597,0.037-9.894-0.018c-1.239-0.021-1.879,0.61-2.134,1.66
		c-0.177,0.729-0.209,1.528-0.13,2.277c0.113,1.081,0.375,2.147,0.593,3.216c0.349,1.712,0.905,3.409,1.018,5.136
		c0.116,1.764-0.171,3.559-0.329,5.335c-0.127,1.431,0.705,1.599,1.798,1.442c1.974-0.283,4.843-4.225,4.531-6.202
		c-0.334-2.115-0.122-2.355,2.064-2.343c0.48,0.003,0.96-0.001,1.439,0.003c2.187,0.015,2.456,0.281,2.465,2.522
		c0.011,2.72,0.003,5.44,0.003,7.629c0.713-0.401,1.543-1.19,2.46-1.309c1.523-0.197,2.723,0.561,3.119,2.325
		c0.601-3.911-0.009-7.807,1.02-11.718c0.806,3.34,2.471,5.581,5.928,6.107c0.118-0.252,0.251-0.407,0.255-0.565
		c0.032-1.618,0.017-3.236,0.065-4.853c0.095-3.223-0.572-3.327,3.194-3.157c1.496,0.067,2.121-0.518,2.52-1.895
		c0.301-1.038,0.806-2.21,1.597-2.869c1.249-1.04,2.814-1.699,4.599-2.721c0-0.59,0.057-1.725-0.032-2.849
		c-0.03-0.378-0.37-0.978-0.669-1.048c-1.382-0.321-2.799-0.668-4.204-0.668c-1.643,0-3.287,0.502-4.93,0.503
		c-1.52,0.001-3.044-0.566-4.56-0.54c-2.954,0.05-5.905,0.34-8.857,0.535C330.218,457.663,330.173,457.727,330.004,457.853z
		 M191.21,504.183c0,2.279,0.033,4.493-0.024,6.705c-0.014,0.535-0.268,1.087-0.505,1.588c-0.265,0.559-0.905,1.061-0.92,1.6
		c-0.148,5.395-0.196,10.793-0.283,16.19c-0.02,1.226,0.34,1.906,1.779,1.779c2.653-0.235,5.318-0.394,7.981-0.462
		c2.817-0.072,5.639-0.047,8.456,0.027c1.225,0.032,1.717-0.351,1.712-1.629c-0.028-7.136,0.01-14.273,0.003-21.41
		c0-0.445-0.079-0.969-0.319-1.319c-0.607-0.884-1.328-1.69-2.004-2.527c0.11-0.181,0.221-0.362,0.331-0.543
		C202.115,504.183,196.813,504.183,191.21,504.183z M423.015,436.83c0.003,0,0.006,0,0.01,0c0,3.057,0.018,6.114-0.006,9.17
		c-0.016,2.135,0.153,2.279,2.364,2.259c6.344-0.06,12.689-0.142,19.032-0.076c1.476,0.015,1.906-0.425,1.862-1.804
		c-0.102-3.225-0.159-6.453-0.163-9.68c-0.004-3.176,0.116-6.353,0.086-9.529c-0.005-0.498-0.466-1.384-0.797-1.424
		c-2.079-0.252-4.18-0.411-6.275-0.412c-1.862-0.001-3.723,0.32-5.588,0.361c-2.876,0.063-5.758,0.083-8.631-0.028
		c-1.56-0.06-1.952,0.571-1.917,2C423.067,430.719,423.015,433.775,423.015,436.83z M356.284,470.993c-0.049,0-0.098,0-0.147,0.001
		c0,3.889,0.102,7.781-0.045,11.665c-0.07,1.835,0.912,2.539,2.333,2.653c4.483,0.359,8.981,0.545,13.471,0.817
		c1.447,0.088,2.075-0.523,2.047-1.995c-0.041-2.154,0.014-4.311,0.055-6.466c0.119-6.216,0.273-12.431,0.329-18.647
		c0.004-0.408-0.675-1.141-1.09-1.183c-3.059-0.306-6.13-0.606-9.2-0.644c-2.291-0.029-4.592,0.295-6.876,0.568
		c-0.328,0.039-0.834,0.666-0.839,1.027C356.262,462.855,356.284,466.924,356.284,470.993z M397.307,505.708
		c-1.124-0.098-2.067-0.108-2.977-0.282c-0.83-0.159-1.646-0.768-2.431-0.706c-2.159,0.171-4.288,0.707-6.447,0.878
		c-2.008,0.159-4.038,0.034-6.222,0.034c-0.132,1.287-0.336,2.396-0.341,3.505c-0.013,3.172,0.093,6.345,0.082,9.517
		c-0.014,4.074-0.077,8.148-0.165,12.221c-0.024,1.114,0.221,1.68,1.513,1.512c1.121-0.146,2.275-0.1,3.411-0.051
		c3.566,0.155,7.129,0.387,10.695,0.521c2.516,0.094,2.85-0.253,2.869-2.68c0.02-2.636,0.011-5.272,0.012-7.908
		C397.307,516.765,397.307,511.263,397.307,505.708z M168.885,518.076c-0.032,0-0.064,0-0.096,0c0,4.013-0.029,8.026,0.038,12.038
		c0.008,0.477,0.525,1.344,0.838,1.359c4.951,0.237,9.908,0.456,14.863,0.439c1.024-0.003,2.747,0.12,2.746-1.969
		c-0.003-5.329,0.12-10.658,0.18-15.987c0.005-0.409,0.056-1.04-0.169-1.193c-1.211-0.824-0.805-2.017-0.831-3.101
		c-0.029-1.197-0.059-2.402,0.042-3.592c0.119-1.396-0.365-1.93-1.811-1.849c-3.66,0.206-7.326,0.304-10.991,0.436
		c-1.077,0.039-2.16,0.115-3.232,0.05c-1.284-0.078-1.621,0.478-1.601,1.69C168.924,510.289,168.885,514.183,168.885,518.076z
		 M484.122,491.003c0-0.01,0-0.021,0-0.031c-3.593,0-7.187,0-10.78,0c-2.446,0-2.45,0-2.486,2.517
		c-0.073,4.959-0.106,9.92-0.235,14.877c-0.032,1.21,0.567,1.426,1.52,1.426c7.777,0.001,15.555-0.011,23.332,0.02
		c1.159,0.005,1.572-0.423,1.569-1.584c-0.013-5.209,0.006-10.419,0.091-15.628c0.021-1.301-0.474-1.638-1.693-1.618
		C491.668,491.041,487.895,491.003,484.122,491.003z M483.69,448.168c-3.949,0-7.899-0.035-11.846,0.042
		c-0.527,0.01-1.479,0.571-1.497,0.915c-0.254,4.896-0.476,9.799-0.473,14.701c0.001,1.306,0.806,2.469,2.579,2.461
		c7.375-0.031,14.751,0.047,22.126,0.022c2.31-0.008,2.543-0.31,2.551-2.641c0.017-4.716-0.014-9.433,0.006-14.149
		c0.005-1.148-0.577-1.377-1.591-1.367C491.594,448.192,487.641,448.168,483.69,448.168z M313.56,532.068
		c5.666,0,11.677,0,17.959,0c0-8.697,0-17.739,0-27.052c-5.567,0-11.069,0.022-16.57-0.017c-1.191-0.008-1.368,0.591-1.365,1.572
		c0.015,4.256-0.017,8.512-0.022,12.768C313.556,523.689,313.56,528.039,313.56,532.068z M400.258,518.823
		c-0.064,0-0.128,0-0.192,0c0,3.712,0.009,7.423-0.003,11.135c-0.008,2.597,0.248,2.943,2.854,2.872
		c4.23-0.115,8.455-0.427,12.685-0.476c1.62-0.019,2.017-0.584,2.022-2.094c0.029-7.663,0.109-15.326,0.268-22.986
		c0.035-1.691-0.436-2.379-2.207-2.298c-4.827,0.221-9.661,0.291-14.487,0.533c-0.337,0.017-0.89,0.951-0.9,1.467
		C400.224,510.923,400.258,514.873,400.258,518.823z M252.621,457.575c-2.126-0.323-3.857-0.624-5.599-0.832
		c-0.637-0.076-1.302,0.055-1.952,0.111c-1.104,0.096-2.21,0.32-3.308,0.285c-1.587-0.052-3.216-0.587-4.733-0.339
		c-1.013,0.166-2.923-0.355-2.916,1.897c0.024,7.432-0.027,14.864-0.092,22.296c-0.01,1.145,0.347,1.592,1.539,1.584
		c5.154-0.033,10.309-0.025,15.463,0.042c1.288,0.017,1.564-0.498,1.644-1.69c0.266-3.935-0.622-7.847-0.147-11.786
		c0.093-0.773-0.448-1.608-0.419-2.405C252.216,463.65,252.442,460.568,252.621,457.575z M213.898,460.263
		c0,7.533-0.012,15.015,0.032,22.497c0.002,0.4,0.423,1.091,0.739,1.148c1.782,0.321,3.595,0.7,5.389,0.664
		c3.586-0.072,7.168-0.399,10.751-0.629c0.105-0.007,0.204-0.113,0.305-0.175c0.029-0.052,0.082-0.105,0.083-0.157
		c0.086-8.447,0.184-16.894,0.2-25.342c0.001-0.375-0.71-1.012-1.155-1.077c-1.294-0.188-2.621-0.188-3.935-0.186
		c-2.838,0.004-5.676,0.039-8.512,0.118c-0.228,0.006-0.647,0.462-0.632,0.686C217.302,459.976,215.727,460.078,213.898,460.263z
		 M376.043,532.322c0.044-0.716,0.108-1.295,0.11-1.875c0.019-6.598,0.03-13.197,0.038-19.795c0.004-3.147-1.006-4.297-4.166-4.898
		c-0.429-0.081-0.775-0.657-1.195-0.708c-1.969-0.236-4.295-1.072-5.821-0.323c-1.315,0.645-2.452,0.789-3.737,0.893
		c-0.685,0.055-1.378,0.01-2.195,0.01c0,4.898,0.007,9.507-0.002,14.115c-0.008,3.659-0.033,7.318-0.059,10.977
		c-0.006,0.839,0.053,1.604,1.177,1.604C365.421,532.322,370.649,532.322,376.043,532.322z M188.772,473.653
		c0,3.021-0.041,5.953,0.042,8.882c0.013,0.471,0.52,1.256,0.907,1.33c1.394,0.267,2.834,0.37,4.258,0.393
		c4.595,0.073,4.507,0.051,4.347-4.628c-0.113-3.32-0.416-6.75,0.269-9.936c0.419-1.948,0.786-3.885,0.966-5.857
		c0.137-1.506-1.025-2.638-2.561-2.65c-3.472-0.027-6.946-0.114-10.415-0.038c-1.599,0.035-2.187-0.556-2.047-2.097
		c0.073-0.808,0.013-1.628,0.013-2.535c-5.207,0.223-10.165,0.434-15.241,0.651c0,1.184-0.291,2.48,0.11,3.506
		c0.237,0.605,1.743,0.597,2.375,1.189c1.311,1.229,2.763,2.511,3.508,4.08c0.628,1.324,1.028,2.036,2.609,1.963
		c2.959-0.137,2.964-0.048,2.932,2.943c-0.012,1.078-0.032,2.157-0.04,3.235c-0.007,0.974-0.001,1.948-0.001,2.972
		c2.75-0.457,5.013-2.854,5.342-5.17c0.065-0.46,0.546-1.199,0.879-1.225c1.547-0.118,3.112-0.068,4.665,0.019
		c0.297,0.017,0.744,0.43,0.807,0.728c0.068,0.318-0.141,0.924-0.396,1.041C191.123,472.897,190.079,473.198,188.772,473.653z
		 M434.825,449.394c0,0.014,0,0.028,0,0.042c-3.352,0-6.706-0.042-10.056,0.046c-0.503,0.013-1.412,0.625-1.421,0.977
		c-0.125,5.183-0.113,10.369-0.176,15.553c-0.013,1.1,0.673,1.347,1.489,1.354c6.586,0.052,13.171,0.069,19.757,0.095
		c1.052,0.004,1.574-0.334,1.57-1.579c-0.018-5.087,0.061-10.175,0.169-15.261c0.025-1.168-0.593-1.239-1.463-1.235
		C441.404,449.404,438.114,449.394,434.825,449.394z M388.349,436.838c0-3.036,0.027-5.96-0.039-8.881
		c-0.007-0.307-0.545-0.843-0.863-0.864c-3.796-0.243-7.598-0.395-11.396-0.603c-1.076-0.059-1.321,0.512-1.327,1.43
		c-0.048,7.43-0.105,14.861-0.181,22.291c-0.009,0.91,0.291,1.269,1.256,1.259c3.117-0.033,6.235-0.004,9.351,0.054
		c1.058,0.02,1.356-0.48,1.333-1.426c-0.029-1.193,0.163-2.414-0.028-3.575c-0.318-1.934,1.199-4.251-1.143-5.79
		c-0.096-0.063-0.051-0.341-0.074-0.519C384.854,437.243,385.161,436.88,388.349,436.838z M212.398,425.741
		c-3.82,0.235-7.514,0.462-11.406,0.702c0,3.088-0.008,6.011,0.012,8.934c0.002,0.277,0.136,0.575,0.275,0.826
		c0.878,1.578,1.342,3.098-0.247,4.57c-0.232,0.215-0.193,0.77-0.199,1.17c-0.016,1.078,0.019,2.157,0.022,3.235
		c0.005,1.824,0.001,3.648,0.001,5.594c3.54,0,6.885-0.022,10.229,0.013c1.067,0.011,1.294-0.494,1.285-1.445
		c-0.028-2.995,0.021-5.991,0.025-8.987C212.403,435.576,212.398,430.799,212.398,425.741z M435.105,468.725
		c0,6.643-0.019,13.082,0.045,19.521c0.004,0.399,0.652,1.123,1.018,1.134c3.088,0.091,6.18,0.052,9.485,0.052
		c0-1.64-0.025-3.121,0.005-4.601c0.096-4.881,0.242-9.762,0.274-14.643c0.003-0.485-0.622-1.385-0.98-1.398
		C441.795,468.679,438.632,468.725,435.105,468.725z M433.403,468.827c-3.001,0-5.748,0.054-8.49-0.023
		c-1.326-0.038-1.81,0.415-1.795,1.753c0.037,3.355-0.051,6.712-0.069,10.068c-0.015,2.848-0.003,5.695-0.003,8.672
		c2.931,0,5.561-0.085,8.181,0.032c1.579,0.07,1.915-0.588,1.923-2.008c0.027-5.072,0.164-10.144,0.252-15.217
		C433.418,471.091,433.403,470.079,433.403,468.827z M407.167,426.797c0,5.803,0,11.179,0,16.555c0,0.06-0.025,0.146,0.005,0.176
		c0.322,0.325,0.646,0.91,0.982,0.918c3.057,0.074,6.117,0.09,9.172-0.003c0.426-0.013,1.158-0.682,1.194-1.095
		c0.267-3.083,0.485-6.176,0.533-9.27c0.03-1.957-0.375-3.919-0.369-5.878c0.004-1.347-0.4-1.805-1.749-1.735
		C413.675,426.635,410.409,426.694,407.167,426.797z M266.155,525.831c-0.057-0.161-0.113-0.321-0.17-0.481
		c0.623-0.816,1.293-1.602,1.85-2.461c0.301-0.463,0.566-1.048,0.578-1.584c0.068-3.176,0.096-6.354,0.037-9.529
		c-0.01-0.539-0.499-1.072-0.776-1.602c-0.326-0.625-0.914-1.23-0.952-1.869c-0.182-3.075-0.13-3.077-3.264-3.135
		c-0.419-0.008-0.849-0.084-1.254-0.016c-0.371,0.063-0.782,0.204-1.06,0.443c-0.798,0.687-1.539,1.441-2.63,2.482
		c0,5.124-0.028,10.754,0.052,16.383c0.007,0.462,0.723,1.281,1.149,1.307C261.854,525.904,264.007,525.831,266.155,525.831z
		 M312.783,474.177c0.499-2.533,1.29-4.817,1.315-7.11c0.032-2.895-0.511-5.803-0.942-8.686c-0.054-0.363-0.922-0.833-1.433-0.859
		c-2.274-0.118-4.557-0.039-6.832-0.141c-1.192-0.053-1.586,0.394-1.582,1.542c0.014,4.615-0.009,9.23-0.06,13.844
		c-0.012,1.1,0.42,1.454,1.503,1.429C307.445,474.136,310.139,474.177,312.783,474.177z M168.843,452.008
		c3.193,0,6.24,0.051,9.28-0.064c0.385-0.015,1.025-0.882,1.056-1.385c0.136-2.212,0.116-4.436,0.104-6.655
		c-0.009-1.613,0.153-3.285-0.212-4.824c-0.386-1.625-0.589-2.86,1.422-3.325c-0.154-0.233-0.216-0.413-0.281-0.414
		c-2.801-0.029-5.627-0.26-8.39,0.056c-1.002,0.115-3.004-0.07-2.989,2.096C168.866,442.226,168.843,446.959,168.843,452.008z
		 M211.223,460.158c-3.414,0-6.566,0-9.749,0c-0.148,0.653-0.331,1.215-0.394,1.791c-0.204,1.87-0.501,3.746-0.497,5.619
		c0.003,1.43,0.449,2.855,0.614,4.292c0.095,0.828-0.126,1.714,0.079,2.501c0.132,0.51,0.759,1.246,1.192,1.265
		c2.572,0.115,5.152,0.086,7.727,0.005c0.352-0.011,0.98-0.574,0.984-0.887C211.242,469.962,211.223,465.18,211.223,460.158z
		 M352.846,463.638c-2.181,0.102-3.509,1.196-4.303,3.259c-1.247,3.241-0.687,3.349-4.153,3.146
		c-1.206-0.071-1.609,0.498-1.541,1.614c0.148,2.43,0.29,4.86,0.399,7.292c0.04,0.896-0.015,1.797-0.034,2.696
		c-0.027,1.25,0.52,1.591,1.35,1.019c0.218-1.46,0.576-2.812,1.09-4.101c0.061-0.153,1.361-0.105,1.427,0.083
		c0.459,1.302,0.744,2.666,1.156,4.289c0.601,0.097,1.781,0.181,2.899,0.49c1.794,0.496,2.364,0.205,2.329-1.626
		c-0.113-5.852-0.285-11.702-0.441-17.553C353.018,464.074,352.926,463.906,352.846,463.638z M177.399,481.642
		c1.098,0.366,1.732,0.255,1.78-0.99c0.124-3.272,0.239-6.546,0.47-9.811c0.114-1.616-0.503-2.241-2.047-1.969
		c-1.844,0.326-2.663-0.518-3.118-2.257c-0.643-2.459-2.775-4.105-5.254-4.219c0,0.952,0.012,1.896-0.002,2.84
		c-0.074,4.905-0.186,9.81-0.194,14.715c-0.001,0.611,0.478,1.706,0.837,1.75c1.572,0.194,3.182,0.083,4.886,0.083
		c-0.292-1.972-0.763-3.799,1.057-5.071C178.037,477.697,178.369,478.679,177.399,481.642z M257.091,295.826
		c-1.517-0.374-2.883-0.904-4.282-1.013c-2.318-0.18-4.658-0.063-6.988-0.125c-0.91-0.024-1.262,0.293-1.314,1.225
		c-0.108,1.953-0.409,3.895-0.496,5.848c-0.197,4.414-0.827,4.107,3.85,3.96c2.604-0.082,5.193-0.617,7.79-0.935
		c0.454-0.056,0.916-0.05,1.44-0.076C257.091,301.632,257.091,298.677,257.091,295.826z M261.176,472.432c0-0.005,0-0.011,0-0.016
		c2.033,0,4.066-0.028,6.098,0.012c1.04,0.02,1.592-0.327,1.501-1.443c-0.039-0.475-0.045-0.962,0.01-1.434
		c0.17-1.462-0.424-2.047-1.919-2.022c-3.288,0.055-6.578-0.017-9.867-0.018c-3.305-0.002-3.239,0.008-3.221,3.302
		c0.007,1.408,0.562,1.715,1.838,1.645C257.464,472.357,259.322,472.432,261.176,472.432z M415.026,468.379c0-1.21,0-2.135,0-3.567
		c-1.79,0.102-3.562,0.203-5.225,0.298c-0.349,2.188-0.493,3.79,1.5,3.574c-0.392,0.235-1.672,0.622-1.698,1.079
		c-0.177,3.183-0.093,6.38-0.093,9.814c1.761-0.378,3.032-0.7,4.322-0.914c1.349-0.223,1.754-0.939,1.567-2.257
		c-0.266-1.881-0.33-3.792-0.625-5.668c-0.093-0.595-0.653-1.114-0.983-1.677c-0.045-0.077,0.003-0.208,0.008-0.335
		C414.245,468.6,414.692,468.474,415.026,468.379z M316.065,481.647c-0.553,3.467-0.334,3.799,2.72,3.76
		c2.07-0.026,4.148-0.166,6.199-0.435c0.4-0.052,0.961-0.917,0.988-1.43c0.116-2.263,0.113-4.537,0.036-6.802
		c-0.02-0.577-0.329-1.46-0.75-1.645c-0.937-0.412-1.426,0.259-1.763,1.179C322.247,479.672,320.52,482.516,316.065,481.647z
		 M402.547,474.342c0.313-0.013,0.625-0.027,0.938-0.04c0-5.586,0-11.171,0-16.757c-0.04-0.004-0.079-0.007-0.119-0.011
		c0,0.472,0,0.943,0,1.455c-0.762-0.251-1.396-0.543-2.057-0.634c-0.259-0.036-0.58,0.381-0.873,0.592
		c0.246,0.197,0.463,0.489,0.743,0.572c0.756,0.225,1.539,0.361,2.355,0.542c-0.175,2.165-1.864,1.322-2.917,1.533
		c-0.605,3.372-0.307,11.971,0.952,12.836c0-2.833,0-5.665,0-8.498c0.326,0.003,0.653,0.007,0.979,0.01
		C402.547,468.743,402.547,471.542,402.547,474.342z M180.439,426.045c-3.077-0.107-6.247-0.233-9.419-0.324
		c-2.266-0.065-2.498,0.289-1.756,2.882c3.134,0,6.346-0.065,9.554,0.026C180.517,428.677,180.917,427.962,180.439,426.045z
		 M237.476,512.939c-0.008,0-0.016,0-0.023,0c0,1.734-0.077,3.474,0.046,5.2c0.037,0.525,0.529,1.306,0.98,1.452
		c0.971,0.315,1.34-0.36,1.351-1.315c0.032-2.811,0.189-5.623,0.117-8.43c-0.023-0.894-0.546-1.807-0.977-2.64
		c-0.149-0.289-0.712-0.365-1.086-0.538c-0.136,0.357-0.381,0.711-0.389,1.07C237.454,509.472,237.476,511.206,237.476,512.939z
		 M287.374,299.241c0,1.172,0.003,1.88-0.001,2.587c-0.023,4.364-0.023,4.364,4.32,3.994c0.119-0.01,0.305,0.039,0.349-0.021
		c0.263-0.362,0.776-0.834,0.691-1.112C291.954,302.151,290.072,300.641,287.374,299.241z M262.75,528.692c0-0.012,0-0.025,0-0.037
		c-0.834,0-1.67,0.046-2.5-0.011c-1.249-0.085-1.838,0.308-1.816,1.698c0.021,1.319,0.593,1.62,1.755,1.567
		c1.426-0.064,2.867-0.113,4.284,0.021c1.635,0.155,2.005-0.56,2.022-2.046c0.02-1.732-1.125-1.129-1.96-1.185
		C263.943,528.66,263.345,528.692,262.75,528.692z M299.981,299.952c-1.981-0.036-5.364,3.125-5.346,4.956
		c0.003,0.305,0.392,0.857,0.623,0.869c1.574,0.077,3.153,0.04,4.722,0.04C299.981,303.715,299.981,301.83,299.981,299.952z
		 M244.312,509.919c1.342,2.279,0.975,3.503-0.841,3.634c0,1.013-0.136,2.054,0.06,3.028c0.091,0.453,0.827,0.776,1.271,1.158
		c0.267-0.426,0.749-0.846,0.762-1.279c0.057-1.906-0.043-3.817-0.035-5.725c0.002-0.517,0.041-1.124,0.306-1.531
		c0.574-0.881,1.305-1.66,2.26-2.834c-1.478,0-2.442-0.106-3.364,0.045c-0.462,0.076-1.176,0.592-1.209,0.959
		c-0.136,1.541-0.057,3.101-0.057,4.654c0.105,0,0.21,0,0.316-0.001C243.938,511.404,244.095,510.78,244.312,509.919z
		 M253.075,511.938c-0.108-0.025-0.216-0.05-0.324-0.075c0,1.47-0.071,2.944,0.038,4.406c0.039,0.517,0.519,1.001,0.797,1.5
		c0.387-0.49,1.087-0.966,1.109-1.471c0.124-2.864,0.13-5.735,0.053-8.601c-0.011-0.414-0.641-1.083-1.07-1.16
		c-0.969-0.175-1.992-0.055-3.23-0.055c0.917,1.493,1.504,3.001,2.56,4.029c1.341,1.306,1.615,1.586,0.505,3.633
		C253.321,513.178,253.198,512.558,253.075,511.938z M202.783,482.938c1.198-0.053,2.292,0.076,1.909-1.509
		c-0.256-1.06-0.584-2.128-0.635-3.205c-0.049-1.038-0.13-1.67-1.428-1.674c-1.314-0.004-1.456,0.711-1.448,1.701
		c0.008,0.954,0.046,1.912-0.023,2.861C201.059,482.495,201.563,483.172,202.783,482.938z M197.086,456.462
		c-1.344,0-2.69,0.042-4.033-0.011c-1.579-0.062-3.294-0.406-2.542,2.225c0.119,0.416-0.184,0.951-0.302,1.482
		c1.445,0,2.738,0,4.056,0C193.382,457.447,193.873,456.857,197.086,456.462z M268.778,462.043c0.015,0,0.03,0,0.045,0
		c0-1.195,0.069-2.396-0.04-3.58c-0.035-0.376-0.546-0.709-0.839-1.061c-0.255,0.331-0.72,0.656-0.731,0.995
		c-0.079,2.387-0.093,4.777-0.05,7.165c0.007,0.368,0.413,0.728,0.634,1.092c0.327-0.343,0.898-0.661,0.936-1.033
		C268.855,464.44,268.778,463.238,268.778,462.043z M305.223,481.115c0.569-0.205,1.137-0.409,1.706-0.614
		c-0.269-0.497-0.596-0.972-0.794-1.496c-0.356-0.94-0.593-1.927-0.966-2.86c-0.166-0.416-0.543-0.748-0.824-1.118
		c-0.368,0.354-0.979,0.663-1.054,1.072c-0.171,0.93-0.02,1.914-0.109,2.866C303.04,480.47,303.423,481.35,305.223,481.115z
		 M395.264,441.448c-1.25-0.438-1.488,0.257-1.495,1.249c-0.016,2.454-0.075,4.909-0.033,7.363c0.008,0.459,0.403,0.91,0.62,1.365
		c0.303-0.475,0.853-0.942,0.867-1.426C395.306,447.198,395.264,444.393,395.264,441.448z M193.693,426.608
		c-0.123-0.152-0.245-0.304-0.368-0.457c-0.353,0.473-0.986,0.932-1.011,1.422c-0.122,2.452-0.117,4.912-0.073,7.368
		c0.007,0.414,0.42,0.821,0.646,1.231c0.269-0.384,0.761-0.762,0.77-1.152C193.724,432.217,193.693,429.412,193.693,426.608z
		 M394.297,426.775c-0.146,0.138-0.292,0.275-0.438,0.413c0,2.916-0.023,5.832,0.032,8.747c0.006,0.333,0.456,0.657,0.7,0.985
		c0.189-0.32,0.535-0.636,0.544-0.961c0.073-2.628,0.127-5.258,0.069-7.885C395.194,427.635,394.614,427.208,394.297,426.775z
		 M249.297,286.751c0-0.027,0-0.055,0-0.082c-1.195,0-2.395-0.059-3.583,0.033c-0.401,0.031-0.773,0.443-1.158,0.681
		c0.343,0.248,0.678,0.699,1.029,0.711c2.568,0.086,5.14,0.11,7.709,0.079c0.364-0.004,0.724-0.411,1.086-0.631
		c-0.38-0.264-0.746-0.725-1.144-0.755C251.929,286.691,250.611,286.751,249.297,286.751z M192.782,450.813
		c0.287-0.056,0.573-0.112,0.86-0.168c0-3.089,0.018-6.178-0.032-9.265c-0.004-0.267-0.465-0.526-0.713-0.788
		c-0.231,0.353-0.655,0.702-0.661,1.059c-0.043,2.636-0.027,5.273,0.034,7.909C192.279,449.981,192.604,450.395,192.782,450.813z
		 M338.084,478.071c-0.863-0.986-1.625-1.857-2.545-2.908c0,2.526-0.008,4.894,0.003,7.262c0.006,1.429,0.841,1.288,1.796,0.995
		C336.725,479.519,336.75,479.356,338.084,478.071z M243.122,518.724c-1.59-3.402-0.226-7.048-1.234-10.526
		c-0.44,0.501-0.717,1.06-0.732,1.625c-0.059,2.335,0.056,4.677-0.078,7.006C240.985,518.429,241.469,519.098,243.122,518.724z
		 M256.975,473.374c-0.205-0.041-0.409-0.081-0.614-0.122c-0.202,0.281-0.573,0.558-0.58,0.844
		c-0.061,2.557-0.074,5.117-0.047,7.675c0.003,0.243,0.375,0.483,0.575,0.724c0.209-0.297,0.581-0.585,0.598-0.892
		c0.077-1.425,0.06-2.855,0.067-4.283C256.98,476.004,256.975,474.689,256.975,473.374z M249.953,517.019
		c0.129-0.029,0.257-0.058,0.386-0.087c-0.162-1.294-0.324-2.588-0.522-4.171c0.6,0.406,0.896,0.606,1.192,0.807
		c0.099-0.116,0.197-0.231,0.296-0.347c-0.738-0.867-1.476-1.734-2.174-2.555c-0.756,0.867-1.463,1.677-2.17,2.488
		c0.096,0.106,0.192,0.212,0.288,0.317c0.295-0.162,0.589-0.323,1.093-0.6c-0.137,1.492-0.253,2.762-0.37,4.032
		c0.105,0.008,0.211,0.016,0.316,0.023c0.242-0.522,0.484-1.043,0.879-1.896C249.531,515.955,249.742,516.487,249.953,517.019z
		 M256.328,467.101c0-3.623,0-6.731,0-9.994C255.064,458.157,254.902,465.378,256.328,467.101z M265.489,477.966
		c-0.014,0-0.027,0-0.041,0c0,1.25-0.039,2.501,0.027,3.747c0.017,0.317,0.364,0.616,0.56,0.923
		c0.228-0.282,0.648-0.56,0.654-0.847c0.06-2.498,0.065-4.999,0.027-7.497c-0.005-0.312-0.36-0.618-0.552-0.926
		c-0.225,0.347-0.619,0.681-0.644,1.042C265.437,475.589,265.489,476.779,265.489,477.966z M258.461,472.861
		c-0.333,0.775-0.567,1.073-0.573,1.376c-0.051,2.388-0.085,4.777-0.05,7.165c0.005,0.364,0.393,0.722,0.604,1.083
		c0.211-0.366,0.598-0.729,0.605-1.1c0.047-2.386,0.025-4.773-0.014-7.159C259.029,473.925,258.792,473.628,258.461,472.861z
		 M186.483,426.385c-1.309,2.583-1.14,8.817,0,9.789C186.483,432.811,186.483,429.598,186.483,426.385z M249.392,293.729
		c0,0.031,0,0.061,0.001,0.092c1.374,0,2.749,0.037,4.12-0.028c0.312-0.015,0.607-0.384,0.911-0.59
		c-0.308-0.194-0.613-0.551-0.926-0.557c-2.687-0.057-5.376-0.072-8.063-0.035c-0.277,0.004-0.548,0.427-0.822,0.656
		c0.28,0.154,0.557,0.43,0.842,0.441C246.765,293.756,248.079,293.729,249.392,293.729z M244.479,277.144
		c0.301,0.41,0.398,0.662,0.501,0.664c2.977,0.072,5.955,0.13,8.933,0.146c0.181,0.001,0.364-0.366,0.546-0.561
		c-0.257-0.167-0.51-0.473-0.772-0.481c-2.623-0.079-5.247-0.123-7.871-0.138C245.441,276.772,245.067,276.974,244.479,277.144z
		 M397.099,451.635c1.087-1.633,1.146-9.25,0-10.54C397.099,444.715,397.099,448.015,397.099,451.635z M399.785,441.433
		c-0.178-0.006-0.355-0.012-0.533-0.017c0,3.311,0,6.622,0,9.933c0.178,0.007,0.355,0.014,0.533,0.021
		C399.785,448.057,399.785,444.745,399.785,441.433z M185.565,450.61c0.192-0.003,0.384-0.005,0.575-0.008c0-3.321,0-6.642,0-9.963
		c-0.192-0.001-0.384-0.002-0.575-0.003C185.565,443.96,185.565,447.285,185.565,450.61z M195.552,440.668
		c-1.264,1.854-1.165,9.37,0,10.132C195.552,447.327,195.552,443.998,195.552,440.668z M198.97,450.639
		c0.178,0.009,0.356,0.017,0.534,0.026c0-3.326,0-6.652,0-9.979c-0.178-0.002-0.356-0.003-0.534-0.005
		C198.97,444.001,198.97,447.32,198.97,450.639z M392.426,441.479c-0.162-0.017-0.324-0.033-0.486-0.05c0,3.32,0,6.639,0,9.959
		c0.162,0.002,0.324,0.003,0.486,0.005C392.426,448.089,392.426,444.784,392.426,441.479z M390.383,440.894
		c-1.043,1.913-1.035,9.518,0,10.799C390.383,448.071,390.383,444.757,390.383,440.894z M188.517,426.272
		c-0.966,0.733-1.201,8.376,0,9.818C188.517,432.854,188.517,429.616,188.517,426.272z M194.84,436.125
		c0.262,0.004,0.523,0.007,0.785,0.011c0-3.296,0-6.592,0-9.888c-0.244-0.004-0.488-0.008-0.732-0.011
		C194.765,429.532,194.828,432.829,194.84,436.125z M197.681,436.133c0-3.297,0-6.593,0-9.955
		C196.824,427.204,196.619,434.347,197.681,436.133z M199.384,436.233c0.766-0.871,1.006-8.147,0.324-9.821
		C198.876,427.359,198.64,434.497,199.384,436.233z M396.916,437.237c0.994-1.683,0.992-9.139,0-10.42
		C396.916,430.355,396.916,433.601,396.916,437.237z M401.921,441.46c-1.192,1.803-1.006,9.179,0,9.836
		C401.921,447.965,401.921,444.712,401.921,441.46z M403.646,427.126c-0.149,0.008-0.299,0.017-0.448,0.025
		c0,3.224,0,6.448,0,9.671c0.149-0.005,0.299-0.01,0.448-0.015C403.646,433.58,403.646,430.353,403.646,427.126z M184.097,440.702
		c-1.012,1.472-0.914,8.913,0,9.982C184.097,447.215,184.097,443.958,184.097,440.702z M389.815,436.807
		c1.063-1.7,0.85-8.953,0-9.651C389.815,430.371,389.815,433.589,389.815,436.807z M254.317,285.385
		c0.009-0.242,0.018-0.484,0.027-0.726c-3.218-0.061-6.437-0.182-9.654-0.005c-0.001,0.244-0.002,0.487-0.003,0.731
		C247.897,285.385,251.107,285.385,254.317,285.385z M392.385,427.068c-0.152,0.019-0.303,0.038-0.455,0.057
		c0,3.228,0,6.457,0,9.685c0.152-0.003,0.303-0.006,0.455-0.009C392.385,433.557,392.385,430.312,392.385,427.068z
		 M405.181,436.915c0.171-0.002,0.342-0.004,0.513-0.006c0-3.265,0-6.53,0-9.795c-0.171,0.001-0.342,0.001-0.513,0.002
		C405.181,430.383,405.181,433.649,405.181,436.915z M244.632,271.175c1.157,0.993,8.447,1.097,10.184,0
		C251.186,271.175,247.997,271.175,244.632,271.175z M244.767,290.946c0,0.166-0.001,0.331-0.001,0.497c3.192,0,6.384,0,9.575,0
		c0-0.166,0.001-0.331,0.001-0.497C251.15,290.946,247.959,290.946,244.767,290.946z M210.273,476.596
		c-1.415,0-2.604-0.074-3.776,0.033c-0.536,0.049-1.39,0.371-1.472,0.717c-0.114,0.485,0.215,1.411,0.615,1.6
		c0.579,0.275,1.541,0.312,2.069-0.003C208.611,478.406,209.304,477.517,210.273,476.596z M257.663,466.556
		c1.194-1.874,1.048-8.552,0-9.481C257.663,460.366,257.663,463.461,257.663,466.556z M399.642,427.063
		c-0.197,0.025-0.395,0.05-0.592,0.075c0,3.23,0,6.46,0,9.69c0.195-0.005,0.39-0.009,0.585-0.014
		C399.864,433.561,400.03,430.308,399.642,427.063z M254.61,473.401c-0.242,0-0.484,0-0.726,0c-0.063,2.899-0.14,5.797-0.159,8.696
		c-0.001,0.184,0.452,0.371,0.884,0.703C254.61,479.483,254.61,476.442,254.61,473.401z M322.27,457.55
		c-0.714,1.379-1.22,2.357-1.672,3.229c1.208,0,2.56,0,3.83,0c-0.232-1.066-0.447-2.05-0.686-3.148
		C323.138,457.598,322.503,457.563,322.27,457.55z M254.333,275.69c-2.154-1.203-8.859-0.985-9.459,0
		C248.056,275.69,251.194,275.69,254.333,275.69z M263.402,466.547c0.186-0.002,0.372-0.005,0.559-0.007c0-3.066,0-6.131,0-9.197
		c-0.186,0-0.372,0-0.559,0C263.402,460.411,263.402,463.479,263.402,466.547z M259.778,466.556
		c0.184-0.011,0.368-0.022,0.552-0.033c0-3.056,0-6.111,0-9.167c-0.184,0.003-0.368,0.006-0.552,0.009
		C259.778,460.429,259.778,463.492,259.778,466.556z M182.013,440.092c-1.044,1.869-1.013,9.556,0,10.667
		C182.013,447.205,182.013,443.887,182.013,440.092z M260.798,473.442c-1.192,1.61-1.104,8.085,0,9.369
		C260.798,479.497,260.798,476.47,260.798,473.442z M313.096,481.129c0-1.999,0-3.494,0-5.216c-1.198,0.728-2.19,1.33-3.483,2.115
		C310.765,479.054,311.778,479.956,313.096,481.129z M190.237,440.682c-0.158,0-0.316,0-0.475-0.001c0,3.299,0,6.599,0,9.898
		c0.158-0.001,0.316-0.001,0.475-0.002C190.237,447.279,190.237,443.981,190.237,440.682z M263.842,482.408
		c0.185-0.008,0.37-0.016,0.555-0.024c0-2.986,0-5.972,0-8.958c-0.185-0.002-0.37-0.004-0.555-0.006
		C263.842,476.417,263.842,479.413,263.842,482.408z M246.33,504.239c-0.002-0.148-0.004-0.297-0.006-0.445
		c-3.018,0-6.035,0-9.053,0c0.002,0.148,0.003,0.297,0.005,0.445C240.294,504.239,243.312,504.239,246.33,504.239z
		 M388.314,441.419c-0.174,0.007-0.348,0.014-0.522,0.022c-0.226,3.299-0.465,6.598-0.238,9.895c0.253,0,0.507,0.001,0.76,0.001
		C388.314,448.031,388.314,444.725,388.314,441.419z M401.007,436.863c0.995-1.925,0.844-8.885,0-9.901
		C401.007,430.384,401.007,433.624,401.007,436.863z M254.402,279.81c0.006-0.194,0.012-0.387,0.018-0.581c-3.22,0-6.441,0-9.661,0
		c-0.001,0.194-0.002,0.387-0.004,0.581C247.97,279.81,251.186,279.81,254.402,279.81z M265.945,457.433
		c-0.16-0.018-0.321-0.036-0.481-0.055c0,3.063,0,6.125,0,9.188c0.16,0.007,0.321,0.014,0.481,0.022
		C265.945,463.536,265.945,460.485,265.945,457.433z M197.383,440.844c-0.135-0.003-0.271-0.006-0.406-0.009
		c0,3.25,0,6.499,0,9.749c0.135,0.004,0.271,0.009,0.406,0.013C197.383,447.345,197.383,444.094,197.383,440.844z M188.171,440.559
		c-0.185,0-0.37,0-0.555,0c0,3.328,0,6.656,0,9.984c0.185,0.001,0.37,0.003,0.555,0.004
		C188.171,447.217,188.171,443.888,188.171,440.559z M190.459,426.405c-0.142,0-0.283,0-0.425,0c0,3.195,0,6.39,0,9.584
		c0.142,0,0.283,0,0.425,0C190.459,432.795,190.459,429.6,190.459,426.405z M211.157,477.541c-1.26,1.098-2.2,1.918-3.24,2.824
		c1.167,0.75,2.105,1.352,3.24,2.081C211.157,480.694,211.157,479.343,211.157,477.541z M312.041,475.051
		c-1.625,0-2.989-0.038-4.348,0.023c-0.407,0.018-0.802,0.317-1.202,0.487c0.289,0.392,0.499,0.911,0.883,1.154
		C308.603,477.493,310.262,476.921,312.041,475.051z M254.527,269.582c-0.006-0.17-0.013-0.34-0.019-0.511
		c-3.176,0-6.353,0-9.529,0c0,0.17,0,0.34,0,0.511C248.162,269.582,251.345,269.582,254.527,269.582z M498.538,534.015
		c-1.257,1.612-1.079,6.594,0,7.556C498.538,538.941,498.538,536.478,498.538,534.015z M268.542,473.539
		c-0.14-0.016-0.281-0.032-0.421-0.047c0,2.978,0,5.956,0,8.933c0.14,0.002,0.281,0.004,0.421,0.006
		C268.542,479.468,268.542,476.503,268.542,473.539z M411.476,451.197c-0.917,0-1.69-0.005-2.464,0.001
		c-1.994,0.016-2.274,0.46-1.675,2.284c0.875-0.202,1.718-0.589,2.537-0.542C411.157,453.015,411.615,452.55,411.476,451.197z
		 M339.781,483.911c0.787-0.452,1.622-0.671,1.674-1.009c0.177-1.161,0.107-2.365,0.061-3.55c-0.007-0.189-0.44-0.552-0.555-0.509
		c-0.273,0.101-0.637,0.372-0.675,0.62C340.09,480.726,339.986,482.004,339.781,483.911z M262.517,473.665
		c-0.128-0.001-0.255-0.003-0.383-0.004c0,2.96,0,5.92,0,8.88c0.128,0.002,0.255,0.003,0.383,0.005
		C262.517,479.586,262.517,476.626,262.517,473.665z M254.342,283.307c-0.013-0.132-0.027-0.263-0.04-0.395
		c-3.164,0-6.329,0-9.493,0c0.003,0.132,0.006,0.263,0.01,0.395C247.993,283.307,251.168,283.307,254.342,283.307z
		 M283.543,478.775c-0.16,0.013-0.319,0.027-0.479,0.04c0,0.878-0.048,1.76,0.017,2.633c0.042,0.566,0.073,1.292,0.417,1.643
		c0.696,0.71,1.603,1.213,2.455,1.825c0.177-0.54,0.744-1.389-0.691-1.974c-1.219-0.498-1.814-1.446-1.632-2.829
		C283.688,479.678,283.577,479.221,283.543,478.775z M404.068,441.468c-0.162,0.001-0.325,0.003-0.487,0.005
		c-0.823,2.29-0.753,8.936-0.206,9.406C403.594,447.897,403.831,444.683,404.068,441.468z M334.365,332.879
		c0.069,0.006,0.138,0.011,0.208,0.017c0-3.719,0-7.439,0-11.158c-0.069-0.002-0.138-0.003-0.208-0.005
		C334.365,325.448,334.365,329.163,334.365,332.879z M253.993,457.495c-0.119,0.001-0.238,0.001-0.358,0.002c0,2.89,0,5.78,0,8.669
		c0.145,0,0.29-0.001,0.435-0.001c0-2.369,0.005-4.738-0.003-7.106C254.065,458.537,254.019,458.016,253.993,457.495z
		 M400.652,484.385c1.011-0.079,1.672-0.131,2.506-0.196c-0.033-0.678-0.074-1.543-0.116-2.409
		c-0.102,0.003-0.204,0.005-0.307,0.008c-0.204,0.497-0.409,0.994-0.781,1.899c-0.281-1.004-0.442-1.58-0.7-2.502
		C400.023,482.372,400.138,483.401,400.652,484.385z M181.727,477.764c-1.405,0.945-1.004,2.21-0.89,3.203
		c0.043,0.374,0.957,0.648,1.816,1.178C182.295,480.448,182.064,479.359,181.727,477.764z M179.87,430.329
		c-0.011-0.147-0.022-0.294-0.032-0.44c-2.282,0-4.564,0-6.846,0c0.001,0.147,0.003,0.294,0.004,0.44
		C175.287,430.329,177.579,430.329,179.87,430.329z M184.81,481.617c1.396-0.144,1.846-3.423,0.985-6.374
		c-0.51,0.487-0.954,0.912-1.378,1.317C185.706,478.492,186.319,479.574,184.81,481.617z M261.952,457.58
		c-0.106-0.009-0.212-0.018-0.318-0.027c0,2.929,0,5.858,0,8.788c0.106,0.002,0.212,0.004,0.318,0.007
		C261.952,463.425,261.952,460.503,261.952,457.58z M400.583,479.737c1.456-1.487,1.401-3.604,0-4.277
		C400.583,476.854,400.583,478.166,400.583,479.737z M270.618,485.053c0.016-0.061,0.032-0.122,0.048-0.183
		c-4.851,0-9.702,0-14.553,0c0,0.061,0,0.122,0,0.183C260.948,485.053,265.783,485.053,270.618,485.053z M389.724,453.317
		c0.002,0.121,0.005,0.243,0.007,0.364c2.314,0,4.628,0,6.942,0c-0.002-0.121-0.004-0.243-0.006-0.364
		C394.353,453.317,392.039,453.317,389.724,453.317z M317.3,458.312c0.004,0.233,0.008,0.467,0.012,0.7
		c0.908,0.8,1.895,1.349,3.009,0.298c0.192-0.181-0.048-1.187-0.079-1.186C319.26,458.139,318.28,458.231,317.3,458.312z
		 M197.208,452.93c0.003-0.117,0.005-0.234,0.008-0.351c-2.31,0-4.62,0-6.929,0c0.001,0.117,0.002,0.234,0.002,0.351
		C192.595,452.93,194.902,452.93,197.208,452.93z M408.741,445.924c-0.005,0.145-0.01,0.289-0.015,0.434c2.083,0,4.166,0,6.248,0
		c0.004-0.145,0.008-0.289,0.013-0.434C412.905,445.924,410.823,445.924,408.741,445.924z M308.368,478.792
		c-0.153,0.653-0.284,1.216-0.415,1.779c0.919,0.172,1.839,0.344,2.758,0.516c0.058-0.177,0.117-0.354,0.175-0.53
		C310.135,480.029,309.383,479.503,308.368,478.792z M402.698,479.192c0.232,0.003,0.464,0.007,0.696,0.01c0-1.253,0-2.506,0-3.759
		c-0.201-0.002-0.401-0.005-0.602-0.007C401.969,476.661,402.681,477.939,402.698,479.192z M176.539,478.166
		c-0.251,0-0.502,0.001-0.753,0.001c0,1.06,0,2.12,0,3.18c0.251,0,0.502,0,0.753-0.001
		C176.539,480.286,176.539,479.226,176.539,478.166z M183.36,480.961c1.418-0.933,1.763-1.939,0-3.378
		C183.36,479.01,183.36,479.985,183.36,480.961z M326.122,457.723c-0.499,0.568-0.837,0.953-1.175,1.338
		c0.411,0.269,0.853,0.79,1.224,0.743c0.429-0.055,0.796-0.607,1.189-0.944C327.017,458.544,326.674,458.229,326.122,457.723z
		 M378.503,453.268c0.006,0.123,0.012,0.245,0.017,0.368c1.736,0,3.473,0,5.209,0c-0.003-0.123-0.007-0.245-0.01-0.368
		C381.98,453.268,380.242,453.268,378.503,453.268z M245.246,281.159c0.01,0.09,0.019,0.18,0.029,0.269c1.678,0,3.356,0,5.033,0
		c-0.005-0.09-0.01-0.18-0.016-0.269C248.61,281.159,246.928,281.159,245.246,281.159z M338.501,483.097
		c0.357-0.975,0.707-1.655,0.819-2.371c0.046-0.297-0.417-0.673-0.648-1.014c-0.334,0.342-0.966,0.707-0.942,1.021
		C337.785,481.447,338.163,482.137,338.501,483.097z M188.59,457.11c-0.577,0.503-0.942,0.822-1.308,1.141
		c0.409,0.341,0.783,0.873,1.238,0.954c0.304,0.054,0.941-0.487,1.019-0.849C189.6,458.074,189.03,457.655,188.59,457.11z
		 M187.168,460.336c-0.454-0.707-0.804-1.073-0.929-1.505c-0.106-0.365,0.12-0.816,0.067-1.211
		c-0.044-0.33-0.278-0.635-0.428-0.951c-0.147,0.073-0.294,0.147-0.441,0.22C186.022,457.932,184.34,459.833,187.168,460.336z
		 M498.845,456.693c0.101,0.004,0.203,0.008,0.304,0.012c0-1.813,0-3.625,0-5.438c-0.101-0.005-0.203-0.01-0.304-0.015
		C498.845,453.065,498.845,454.879,498.845,456.693z M306.714,484.621c-0.124-0.215-0.247-0.43-0.371-0.644
		c-0.546,0.183-1.092,0.367-1.639,0.55c0.188,0.492,0.375,0.984,0.563,1.475C305.75,485.542,306.232,485.081,306.714,484.621z
		 M206.305,480.769c-0.383,1.788,0.162,2.039,2.579,1.351C207.991,481.652,207.229,481.253,206.305,480.769z M346.888,479.872
		c-0.235-0.017-0.47-0.035-0.706-0.052c-1.436,0.985-0.41,1.91,0.459,2.877C346.724,481.755,346.806,480.813,346.888,479.872z
		 M498.758,498.111c0.13-0.012,0.26-0.025,0.39-0.037c0-1.71,0-3.42,0-5.131c-0.13-0.001-0.26-0.001-0.39-0.002
		C498.758,494.664,498.758,496.387,498.758,498.111z M482.952,542.495c-0.004-0.064-0.009-0.128-0.013-0.191
		c-1.455,0-2.911,0-4.366,0c0.006,0.064,0.012,0.128,0.018,0.191C480.044,542.495,481.498,542.495,482.952,542.495z
		 M499.229,430.753c-0.124-0.025-0.247-0.051-0.371-0.076c0,1.725,0,3.45,0,5.176c0.124,0,0.247,0.001,0.371,0.001
		C499.229,434.154,499.229,432.454,499.229,430.753z M197.468,458.652c-0.018-0.167-0.036-0.335-0.054-0.502
		c-0.498-0.143-1.006-0.418-1.492-0.383c-0.354,0.026-0.678,0.461-1.016,0.714c0.452,0.287,0.882,0.742,1.363,0.805
		C196.635,459.333,197.066,458.881,197.468,458.652z M254.048,519.22c0.018-0.102,0.037-0.204,0.055-0.307
		c-1.955,0-3.909,0-5.864,0c0,0.102,0,0.204-0.001,0.307C250.175,519.22,252.112,519.22,254.048,519.22z M333.251,483.418
		c-1.435-1.55-2.379-1.267-3.733,0C330.914,483.418,331.854,483.418,333.251,483.418z M328.414,457.551
		c-0.186,1.164-0.351,2.199-0.512,3.206C329.209,460.551,329.485,459.175,328.414,457.551z M407.841,474.982
		c-1.283,1.206-1.032,2.124,0.992,3.13C408.465,476.95,408.161,475.993,407.841,474.982z M498.672,477.224
		c0.198-0.024,0.397-0.048,0.595-0.071c-0.078-1.586-0.157-3.172-0.235-4.758c-0.12,0.005-0.24,0.009-0.36,0.014
		C498.672,474.013,498.672,475.618,498.672,477.224z M181.179,452.505c-0.008,0.117-0.015,0.234-0.023,0.351
		c1.409,0,2.817,0,4.226,0c0.001-0.117,0.003-0.234,0.004-0.351C183.983,452.505,182.581,452.505,181.179,452.505z
		 M500.593,435.058c0.074,0.008,0.148,0.015,0.221,0.023c0-1.248,0-2.496,0-3.743c-0.074,0.004-0.148,0.008-0.221,0.012
		C500.593,432.586,500.593,433.822,500.593,435.058z M401.055,453.348c0.004,0.111,0.008,0.222,0.011,0.333
		c1.298,0,2.596,0,3.894,0c-0.003-0.111-0.006-0.222-0.009-0.333C403.652,453.348,402.354,453.348,401.055,453.348z
		 M420.38,435.199c0.081,0,0.161,0.001,0.242,0.001c0-1.413,0-2.827,0-4.24c-0.081,0-0.161-0.001-0.242-0.001
		C420.38,432.373,420.38,433.786,420.38,435.199z M253.797,273.338c-0.016-0.067-0.032-0.134-0.048-0.201c-2.767,0-5.534,0-8.301,0
		c0,0.067,0,0.134,0.001,0.201C248.232,273.338,251.015,273.338,253.797,273.338z"/>
<path d="M292.814,289.945c2.275,0,4.551,0.015,6.826-0.006c1.201-0.011,1.745,0.548,1.764,1.738
		c0.092,5.606,0.391,4.698-4.414,4.747c-3.472,0.035-6.946-0.003-10.419-0.042c-2.197-0.025-2.595-0.478-2.524-2.684
		c0.123-3.84,0.123-3.833,3.916-3.792c1.617,0.018,3.234,0.003,4.85,0.003C292.814,289.921,292.814,289.933,292.814,289.945z
		 M296.313,291.645c0-0.171,0-0.341,0.001-0.512c-2.439,0-4.878,0-7.317,0c0,0.171,0,0.341-0.001,0.512
		C291.435,291.645,293.874,291.645,296.313,291.645z"/>
<path id="Hallways" fill="#808080" d="M248.449,505.335c0-0.719-0.016-1.135,0.003-1.549c0.057-1.282-0.529-1.855-1.829-1.851
		c-3.719,0.012-7.438-0.023-11.158-0.046c-4.865-0.031-9.73-0.069-14.596-0.103c-7.317-0.05-14.633-0.111-21.95-0.144
		c-9.813-0.043-19.627-0.062-29.441-0.101c-0.221-0.001-0.442-0.114-0.505-0.132c-1.022-4.815-1.397-9.503,0.463-14.194
		c2.654,0,5.517-0.004,8.379,0.001c3.659,0.007,7.324,0.142,10.976-0.008c2.728-0.112,5.703-1.448,8.107-0.719
		c4.998,1.516,9.937,0.55,14.877,0.765c3.77,0.164,7.658-0.994,11.34-0.477c7.651,1.074,15.283,0.405,22.916,0.579
		c10.004,0.227,20.014,0.166,30.021,0.229c3.359,0.021,6.72-0.031,10.074,0.097c1.601,0.061,2.177-0.575,2.142-2.065
		c-0.026-1.079,0.123-2.174-0.025-3.232c-0.076-0.546-0.614-1.446-0.972-1.46c-1.584-0.064-1.576-1.096-1.436-2.119
		c0.257-1.884-0.545-2.405-2.324-2.308c-2.144,0.116-2.414,0.251-2.49,2.33c-0.015,0.419-0.014,0.84-0.015,1.26
		c-0.005,1.44,0.486,3.122-2.111,2.758c-0.901-0.126-1.897,0.706-2.886,0.848c-1.327,0.191-2.764,0.451-3.774-0.893
		c-0.059-0.079-0.228-0.132-0.331-0.113c-2.852,0.51-2.35-1.525-2.303-3.107c0.123-4.122,0.398-8.24,0.442-12.362
		c0.029-2.678-0.195-5.362-0.396-8.036c-0.107-1.428,0.433-1.918,1.836-1.874c2.637,0.083,5.279,0.073,7.918,0.038
		c1.174-0.016,1.846,0.294,1.68,1.629c-0.08,0.65-0.011,1.318-0.014,1.977c-0.01,2.275,0.319,2.509,2.59,2.604
		c1.709,0.072,2.264-0.695,2.195-2.248c-0.038-0.838-0.111-1.702,0.048-2.511c0.103-0.527,0.49-1.133,0.933-1.434
		c1.262-0.857,1.416-2.003,0.353-3.112c-0.553-0.577-1.006-1.255-1.476-1.908c-0.96-1.332-2.204-0.835-3.407-0.539
		c-0.948,0.233-1.886,0.731-2.829,0.731c-6.898-0.001-13.795-0.092-20.693-0.168c-2.379-0.026-3.467-1.107-3.468-3.531
		c-0.001-7.799,0.026-15.597,0.052-23.396c0.09-26.575,0.184-53.15,0.278-79.726c0.012-3.297,0.015-3.27,3.334-3.269
		c8.336,0.003,16.672-0.027,25.009-0.026c1.136,0,2.287,0.231,3.401,0.102c0.511-0.059,1.191-0.647,1.368-1.146
		c0.291-0.818-0.053-1.61-1.13-1.533c-1.354,0.097-1.394-0.701-1.39-1.704c0.023-6.479,0.04-12.958,0.002-19.437
		c-0.013-2.267-0.411-4.553-0.217-6.795c0.143-1.657,0.942-3.263,1.506-4.871c0.063-0.178,0.503-0.316,0.769-0.318
		c3.879-0.02,7.759-0.014,11.638-0.014c-0.093,0.2-0.187,0.401-0.28,0.601c0.515,0.828,1.332,1.605,1.483,2.495
		c0.315,1.86,0.388,3.781,0.356,5.673c-0.029,1.707-0.468,3.409-0.485,5.115c-0.062,6.292-0.025,12.584-0.025,18.921
		c-0.353,0.112-0.568,0.239-0.783,0.238c-1.081-0.005-1.937,0.544-1.672,1.561c0.148,0.567,1.254,1.249,1.937,1.258
		c9.894,0.132,19.79,0.157,29.686,0.212c0.235,0.001,0.47,0.041,0.815,0.073c0.063,0.411,0.177,0.804,0.176,1.196
		c-0.011,18.896-0.003,37.792-0.061,56.688c-0.049,15.772-0.159,31.544-0.302,47.315c-0.015,1.641-0.381,3.29-0.722,4.907
		c-0.069,0.326-0.761,0.742-1.167,0.743c-7.498,0.032-14.997,0.026-22.494-0.044c-0.509-0.005-1.161-0.467-1.491-0.908
		c-1.152-1.538-3.237-1.516-4.27,0.123c-0.687,1.09-2.144,1.828-1.576,3.489c0.094,0.276,0.079,0.789,0.212,0.824
		c2.024,0.533,1.249,2.164,1.26,3.365c0.054,6.058,0.014,12.118,0.008,18.177c-0.001,0.645,0,1.291,0,1.443
		c-1.089,0.762-2.381,1.228-2.412,1.766c-0.099,1.764-0.85,3.729,0.724,5.29c0.126,0.125,0.277,0.329,0.412,0.326
		c2.092-0.041,4.28,0.651,6.261-0.714c1.419,1.329,2.027,1.336,3.762-0.009c0.131-0.102,0.325-0.286,0.418-0.249
		c1.887,0.737,2.355-0.664,3.028-1.917c0,0.337-0.003,0.674,0.001,1.011c0.02,1.885,1.223,2.6,3.005,1.885
		c2.628-1.054,5.201-0.85,7.907,0.035c1.578,0.516,3.422,0.272,5.147,0.28c10.552,0.047,21.104,0.103,31.655,0.08
		c3.563-0.008,7.125-0.323,10.689-0.348c5.012-0.036,10.026,0.059,15.038,0.113c7.845,0.084,15.691,0.169,23.536,0.283
		c1.269,0.018,2.367-0.124,2.361-1.712c-0.006-1.523-1.121-1.614-2.279-1.6c-1.32,0.016-2.64-0.027-3.959,0.009
		c-1.088,0.03-1.486-0.448-1.45-1.522c0.058-1.726,0.016-3.456,0.016-5.465c0.747,0.405,1.25,0.583,1.636,0.902
		c2.926,2.419,6.08,1.532,9.18,0.565c0.549-0.171,1.23-1.054,1.244-1.623c0.098-3.834,0.085-7.674-0.037-11.507
		c-0.017-0.539-0.724-1.305-1.285-1.525c-1.102-0.431-2.37-0.428-3.49-0.828c-2.224-0.794-3.874,0.281-5.362,1.602
		c-0.464,0.412-0.544,1.407-0.566,2.142c-0.069,2.337-0.003,4.678-0.046,7.017c-0.01,0.547-0.245,1.091-0.376,1.636
		c-0.152-0.013-0.304-0.026-0.457-0.039c-0.099-0.303-0.285-0.606-0.284-0.909c0.016-5.339,0.103-10.678,0.059-16.016
		c-0.012-1.477,0.588-1.955,1.911-1.811c1.24,0.135,2.471,0.411,3.712,0.459c1.653,0.063,2.714-1.368,2.345-2.997
		c-0.666-2.94-0.174-3.575,2.774-3.576c0.645,0,1.291,0,1.985,0c0.199,2.398,0.531,4.638,0.545,6.88
		c0.055,8.517,0.048,17.036-0.016,25.553c-0.04,5.291-0.256,10.581-0.332,15.872c-0.056,3.872-0.1,4.374-3.915,3.705
		c-5.698-1-11.367-0.728-17.057-0.739c-1.643-0.003-3.29,0.53-4.929,0.498c-5.608-0.108-11.212-0.48-16.82-0.53
		c-13.718-0.122-27.438-0.101-41.157-0.178c-6.169-0.034-12.338-0.208-18.507-0.212c-1.324-0.001-2.676,0.367-3.952,0.767
		c-0.331,0.104-0.589,0.966-0.599,1.486c-0.098,5.096-0.136,10.194-0.19,15.291c-0.034,3.178-0.094,6.357-0.08,9.535
		c0.005,1.051,0.206,2.102,0.347,3.429c-0.908-0.121-1.86-0.334-2.817-0.359c-3.537-0.092-7.076-0.148-10.614-0.171
		c-5.838-0.038-11.677-0.076-17.514-0.041c-2.558,0.015-5.116,0.185-7.672,0.336c-1.614,0.095-2.388-0.406-2.392-2.214
		c-0.011-5.444-0.276-10.888-0.252-16.332c0.014-3.152,0.352-6.307,0.625-9.453c0.17-1.956-0.084-2.324-2.066-2.335
		c-4.139-0.022-8.279-0.002-12.417-0.07c-1.451-0.024-2.371,0.339-2.199,1.999c0.102,0.986-0.313,1.449-1.325,1.421
		C250.916,505.31,249.789,505.335,248.449,505.335z"/>
<path id="B23.211" fill="#910000" d="M111.274,482.266c-6.892,0-13.784-0.021-20.675,0.019c-1.325,0.008-2.12-0.164-2.125-1.807
		c-0.01-3.868-0.294-7.735-0.294-11.603c-0.002-10.795,0.083-21.59,0.135-32.384c0.016-3.291,0.077-6.583,0.038-9.873
		c-0.017-1.391,0.54-1.977,1.913-1.94c1.858,0.05,3.719,0.087,5.576,0.039c3.801-0.098,7.601-0.369,11.4-0.355
		c3.202,0.012,6.403,0.45,9.606,0.477c5.189,0.044,10.38-0.114,15.571-0.146c2.341-0.015,3.271,0.633,2.708,2.835
		c-1.439,5.624-0.612,11.356-1.266,17.007c-0.383,3.311-0.215,6.693-0.193,10.043c0.041,6.28,0.114,12.56,0.266,18.838
		c0.048,1.997,0.513,3.983,0.569,5.98c0.07,2.511-0.671,3.127-3.098,3.121c-6.71-0.016-13.42-0.006-20.13-0.006
		C111.274,482.429,111.274,482.348,111.274,482.266z"/>
<path id="B23.212" fill="#910000" d="M111.656,540.121c-6.894,0-13.788-0.038-20.681,0.03c-1.512,0.015-2.22-0.312-2.092-1.984
		c0.045-0.589-0.654-1.199-0.845-1.849c-0.258-0.877-0.502-1.804-0.494-2.707c0.039-4.913,0.193-9.825,0.239-14.737
		c0.093-9.946,0.142-19.893,0.21-29.84c0.005-0.659-0.066-1.335,0.052-1.974c0.238-1.28,0.797-2.044,2.388-2.004
		c8.8,0.221,17.603,0.361,26.406,0.449c5.079,0.051,10.16-0.01,15.238-0.11c1.443-0.028,1.836,0.493,1.837,1.882
		c0.003,2.858,0.367,5.721,0.274,8.572c-0.248,7.581-0.765,15.155-0.966,22.737c-0.115,4.354-0.252,8.79,0.454,13.051
		c0.402,2.423,0.44,4.791,0.61,7.187c0.07,0.99-0.203,1.491-1.412,1.48c-7.073-0.065-14.146-0.032-21.22-0.032
		C111.656,540.222,111.656,540.171,111.656,540.121z"/>
<path id="B23.211 Lounge" fill="#910000" d="M164.458,425.431c0,4.867,0.027,9.785-0.005,14.703c-0.105,16.01-0.244,32.019-0.331,48.029
		c-0.01,1.781,0.354,3.565,0.339,5.345c-0.024,2.808-0.27,5.614-0.328,8.423c-0.031,1.486-0.984,1.401-1.97,1.382
		c-6.113-0.115-12.227-0.235-18.34-0.346c-1.978-0.036-3.959,0.008-5.931-0.118c-0.47-0.03-1.259-0.553-1.303-0.921
		c-0.362-3.039-1.03-6.143-0.706-9.13c0.265-2.443,0.308-5.069,1.692-7.424c0.541-0.92,1.093-2.787-0.902-3.63
		c-0.415-0.176-0.827-0.976-0.803-1.467c0.091-1.862-0.588-3.837,0.753-5.561c0.247-0.318,0.163-0.924,0.165-1.398
		c0.025-5.398,0.007-10.797,0.086-16.195c0.012-0.83,0.44-1.658,0.702-2.479c0.435-1.362,0.824-2.67-0.305-3.96
		c-0.334-0.381-0.398-1.096-0.397-1.658c0.006-4.439,0.119-8.878,0.072-13.316c-0.032-3.031-0.249-6.06-0.424-9.088
		c-0.064-1.101,0.234-1.621,1.476-1.633c3.62-0.037,7.241-0.345,10.856-0.272C153.97,424.823,159.079,425.174,164.458,425.431z"/>
<path id="Other Hallway" fill="#808080" d="M447.842,425.612c6.725,0,13.267,0,20.025,0c0,3.223,0.003,6.135,0,9.046
		c-0.009,7.762,0.002,15.524-0.035,23.286c-0.064,13.323-0.162,26.645-0.24,39.968c-0.02,3.356-0.065,6.713,0.002,10.068
		c0.025,1.254-0.397,1.712-1.64,1.696c-9.171-0.116-18.343-0.238-27.515-0.269c-4.594-0.015-9.191,0.114-13.783,0.274
		c-1.254,0.044-1.71-0.267-1.678-1.573c0.123-5.149,0.177-10.301,0.214-15.452c0.01-1.369,0.944-1.149,1.75-1.143
		c6.596,0.048,13.193,0.111,19.789,0.169c0.36,0.003,0.722-0.022,1.079,0.01c1.246,0.112,1.726-0.505,1.751-1.69
		c0.076-3.711,0.247-7.422,0.268-11.133c0.043-7.542,0.013-15.084,0.013-22.626C447.842,446.182,447.842,436.121,447.842,425.612z
		 M460.663,491.019c-0.023,1.739,1.471,3.956,2.669,3.958c2.145,0.004,3.991-1.301,3.975-2.812
		c-0.019-1.775-1.893-4.254-3.219-4.257C462.64,487.904,460.681,489.684,460.663,491.019z M464.049,502.621
		c1.039,0.071,3.11-2.253,3.217-3.611c0.106-1.338-1.944-2.859-3.94-2.922c-0.898-0.029-2.635,2.269-2.75,3.638
		C460.494,500.691,462.699,502.529,464.049,502.621z"/>
<path id="B23.213" fill="#910000" d="M474.795,512.155c6.892,0,13.784,0.022,20.675-0.024c1.052-0.007,1.402,0.382,1.382,1.345
		c-0.029,1.433-0.04,2.867-0.042,4.3c-0.012,7.058-0.049,14.117,0,21.174c0.01,1.452-0.418,2.01-1.926,2.004
		c-13.365-0.054-26.73-0.05-40.094-0.065c-0.923-0.001-1.783,0.049-1.847-1.322c-0.27-5.729-1.589-11.392-0.975-17.183
		c0.321-3.025,0.48-6.071,0.613-9.112c0.064-1.464,1.043-1.205,1.897-1.201c5.755,0.021,11.51,0.063,17.264,0.096
		c1.018,0.006,2.035,0.001,3.053,0.001C474.794,512.164,474.795,512.159,474.795,512.155z"/>
<path id="B23.210" fill="#910000" d="M164.741,540.413c-4.071,0-7.894,0.013-11.716-0.003c-4.854-0.021-9.708-0.098-14.561-0.075
		c-1.044,0.005-1.422-0.316-1.358-1.328c0.061-0.957,0.214-1.951,0.034-2.872c-1.118-5.722-0.692-11.5-0.683-17.26
		c0.001-0.705,0.673-1.391,0.754-2.118c0.133-1.193,0.484-2.683-0.051-3.567c-1.329-2.194-0.427-4.402-0.533-6.585
		c-0.008-0.159,0.957-0.532,1.466-0.526c8.214,0.094,16.427,0.232,24.64,0.366c0.232,0.004,0.463,0.07,0.873,0.135
		c0.128,3.264,0.349,6.523,0.361,9.783c0.018,4.796-0.21,9.595-0.133,14.389c0.031,1.933,0.661,3.849,0.881,5.789
		C164.855,537.772,164.741,539.031,164.741,540.413z"/>
<path id="B23.230" fill="#910000" d="M275.861,309.082c0,1.198-0.033,2.508,0.009,3.815c0.043,1.299,0.679,1.923,2.067,1.865
		c1.944-0.082,3.893-0.021,5.56-0.021c0,7.897-0.044,15.425,0.034,22.951c0.018,1.7-0.849,2.079-2.193,2.075
		c-7.793-0.023-15.586-0.094-23.379-0.079c-1.406,0.003-1.788-0.396-1.799-1.855c-0.033-4.769-0.414-9.537-0.404-14.305
		c0.01-4.35,0.325-8.702,0.593-13.047c0.03-0.484,0.624-1.334,0.965-1.338C263.52,309.06,269.727,309.082,275.861,309.082z"/>
<path id="B23.228" fill="#910000" d="M303.815,339.81c0-8.448,0-16.75,0-24.954c2.092,0,4.342,0.046,6.587-0.036
		c0.497-0.018,1.177-0.366,1.427-0.774c0.708-1.153,0.246-3.955-0.816-5.172c3.865,0,7.593-0.034,11.319,0.047
		c0.418,0.009,1.115,0.617,1.178,1.025c0.186,1.2,0.863,1.438,1.89,1.412c1.306-0.034,2.613-0.008,3.905-0.008
		c0.218-0.773,0.384-1.358,0.549-1.943c0.163-0.008,0.327-0.016,0.49-0.025c0.098,0.443,0.282,0.886,0.279,1.328
		c-0.015,2.338-0.108,4.675-0.11,7.012c-0.001,1.316-0.456,2.818,1.274,3.582c0.207,0.092,0.226,0.753,0.226,1.151
		c-0.002,3.119,0.021,6.24-0.088,9.356c-0.026,0.728-0.545,1.434-0.807,2.161c-0.235,0.653-0.558,1.31-0.612,1.984
		c-0.099,1.239-0.028,2.491-0.028,3.854C321.607,339.81,312.827,339.81,303.815,339.81z"/>
<path id="B23.216" fill="#910000" d="M436.137,540.883c-3.657,0-7.315-0.042-10.972,0.02c-1.52,0.026-2.208-0.545-2.175-2.083
		c0.081-3.773,0.146-7.546,0.157-11.32c0.005-1.903-0.158-3.806-0.18-5.71c-0.031-2.735,0.017-5.471-0.008-8.206
		c-0.01-1.121,0.47-1.684,1.593-1.685c7.671-0.009,15.342-0.035,23.013,0.021c0.428,0.003,1.193,0.664,1.223,1.061
		c0.327,4.469,0.571,8.945,0.769,13.422c0.085,1.914,0.297,3.89-0.062,5.738c-0.459,2.364,0.049,4.637,0.069,6.947
		c0.011,1.347-0.466,1.814-1.755,1.803c-3.89-0.035-7.781-0.013-11.671-0.013C436.137,540.879,436.137,540.881,436.137,540.883z"/>
<path fill="#808080" d="M249.533,527.158c0,1.603,0,3.207,0,5.06c-4.608,0-8.891,0.062-13.172-0.017
		c-4.661-0.086-9.32-0.383-13.981-0.433c-2.726-0.029-5.455,0.314-8.184,0.36c-2.52,0.043-3.272-0.967-2.674-3.374
		c0.073-0.292,0.379-0.729,0.606-0.748c1.369-0.112,2.745-0.136,4.12-0.159c0.597-0.01,1.198,0.023,1.793,0.084
		c1.642,0.168,2.084-0.709,2.051-2.17c-0.031-1.401,0.029-2.704-1.998-2.6c-1.655,0.085-3.321-0.055-4.978,0.004
		c-1.1,0.039-1.547-0.389-1.471-1.462c0.033-0.477,0.029-0.961,0-1.438c-0.063-1.03,0.255-1.548,1.432-1.452
		c1.452,0.119,2.918,0.041,4.377,0.081c2.332,0.065,2.593-0.13,2.633-2.083c0.067-3.216-0.02-3.336-2.453-3.342
		c-1.479-0.004-2.959-0.045-4.435,0.01c-1.052,0.039-1.561-0.301-1.508-1.427c0.063-1.316-0.063-2.646,0.065-3.953
		c0.062-0.635,0.515-1.233,0.961-2.224c0.038,0.058-0.192-0.292-0.534-0.81c3.702,0,7.225,0,10.748,0
		c0.028,0.15,0.056,0.3,0.084,0.449c-0.584,0.171-1.167,0.341-1.751,0.512c0.025,0.203,0.05,0.406,0.075,0.608
		c0.788-0.13,2.137-0.06,2.267-0.425c0.591-1.656,1.972-1.435,3.1-1.475c2.212-0.08,4.433,0.11,6.651,0.15
		c0.888,0.016,1.245,0.342,1.28,1.283c0.131,3.537,0.359,7.07,0.525,10.605c0.042,0.897-0.005,1.798-0.025,2.697
		c-0.057,2.633,0.009,2.643,2.708,2.605c3.767-0.053,7.536-0.013,11.514-0.013c0.096,1.445,0.192,2.905,0.289,4.365
		c0.199-0.007,0.397-0.014,0.596-0.022c0.05-0.724,0.095-1.449,0.153-2.172c0.055-0.691,0.124-1.382,0.187-2.077
		c1.729,0,3.266,0,5.06,0c0,3.07,0.035,6.044-0.046,9.014c-0.01,0.36-0.64,0.711-1.003,1.045c-0.07,0.064-0.232,0.025-0.351,0.038
		c-3.766,0.405-3.909,0.271-3.923-3.567c-0.002-0.515-0.078-1.03-0.12-1.544C249.98,527.148,249.757,527.153,249.533,527.158z
		 M224.792,515.889c-0.003,0.024,0.135-0.304,0.053-0.562c-0.193-0.612-0.431-1.656-0.758-1.698
		c-1.074-0.139-3.074-0.112-3.148,0.211c-0.344,1.507-0.36,3.18-0.019,4.685c0.078,0.342,2.047,0.322,3.145,0.313
		c0.245-0.002,0.603-0.634,0.696-1.026C224.884,517.304,224.792,516.746,224.792,515.889z M227.421,527.998
		c2.317-0.017,2.362-0.068,2.341-2.618c-0.018-2.118-0.053-2.018-2.849-2.172c-2.169-0.12-1.911,1.225-1.904,2.552
		C225.018,527.91,225.127,528.015,227.421,527.998z M224.709,525.598c0.021-2.347,0.014-2.35-2.168-2.381
		c-1.078-0.015-2.163-0.23-2.132,1.502c0.054,3.036,0.092,3.212,1.963,3.237C224.688,527.987,224.688,527.987,224.709,525.598z
		 M213.961,505.926c-0.001,0.158-0.002,0.315-0.003,0.473c1.002,0,2.003,0,3.005,0c0.001-0.158,0.002-0.315,0.002-0.473
		C215.964,505.926,214.963,505.926,213.961,505.926z"/>
<path id="B23.214B" fill="#910000" d="M497.131,467.942c0,6.429,0.019,12.83-0.01,19.23c-0.01,2.337-0.279,2.516-2.645,2.514
		c-7.19-0.006-14.38,0.007-21.57,0.019c-1.972,0.003-2.56-0.645-2.524-2.565c0.064-3.468,0.125-6.94,0.037-10.406
		c-0.041-1.61-0.635-3.214-0.606-4.815c0.024-1.279,0.565-2.564,0.986-3.809c0.09-0.267,0.654-0.531,0.999-0.53
		c8.265,0.011,16.53,0.057,24.794,0.104C496.699,467.686,496.804,467.782,497.131,467.942z"/>
<path id="B23.224" fill="#910000" d="M355.696,519.152c0,3.953-0.023,7.906,0.013,11.859c0.012,1.291-0.412,1.808-1.801,1.739
		c-4.53-0.223-9.065-0.356-13.6-0.454c-1.241-0.027-2.489,0.169-3.73,0.301c-1.177,0.125-1.966-0.044-1.93-1.546
		c0.145-6.163,0.246-12.328,0.308-18.493c0.018-1.844-0.151-3.689-0.221-5.534c-0.045-1.189,1.576-3.032,2.754-3.041
		c1.376-0.01,3.037-0.384,4.08,0.234c4.184,2.48,8.678,0.91,12.997,1.362c1.114,0.117,1.408,0.498,1.397,1.535
		c-0.04,4.012-0.016,8.026-0.016,12.038C355.863,519.152,355.78,519.152,355.696,519.152z"/>
<path id="B23.221" fill="#910000" d="M397.437,471.058c0,3.896-0.086,7.795,0.04,11.687c0.054,1.669-0.55,1.972-2.069,2.003
		c-2.468,0.051-5.129-0.086-7.332,0.797c-1.808,0.724-3.455,0.877-5.226,0.793c-1.943-0.092-3.274-0.945-4.709-2.55
		c-1.465-1.637-1.108-3.089-1.117-4.657c-0.036-6.294,0.037-12.588,0.096-18.882c0.026-2.772,0.522-3.225,3.335-3.05
		c2.545,0.158,5.084,0.511,7.628,0.543c2.242,0.028,4.487-0.342,6.734-0.4c2.471-0.064,2.812,0.355,2.803,2.75
		c-0.014,3.655-0.004,7.311-0.004,10.966C397.557,471.058,397.497,471.058,397.437,471.058z"/>
<path id="B23.215" fill="#910000" d="M470.777,425.22c3.911,0,7.667,0.011,11.423-0.003c4.511-0.017,9.022-0.034,13.532-0.103
		c0.893-0.014,1.515-0.019,1.508,1.152c-0.037,6.404-0.067,12.808-0.005,19.212c0.013,1.302-0.541,1.476-1.604,1.472
		c-6.707-0.024-13.415,0.047-20.121-0.031c-4.57-0.053-4.687-0.254-4.666-4.949c0.021-4.669,0.071-9.337,0.088-14.006
		C470.936,427.141,470.842,426.316,470.777,425.22z"/>
<path fill="#808080" d="M330.004,457.853c0.169-0.126,0.214-0.19,0.263-0.193c2.952-0.195,5.902-0.485,8.857-0.535
		c1.516-0.026,3.04,0.541,4.56,0.54c1.643-0.001,3.287-0.503,4.93-0.503c1.405,0,2.822,0.348,4.204,0.668
		c0.298,0.069,0.639,0.669,0.669,1.048c0.089,1.124,0.032,2.259,0.032,2.849c-1.785,1.022-3.35,1.681-4.599,2.721
		c-0.792,0.659-1.296,1.831-1.597,2.869c-0.399,1.376-1.023,1.962-2.52,1.895c-3.766-0.17-3.099-0.066-3.194,3.157
		c-0.048,1.617-0.033,3.236-0.065,4.853c-0.003,0.158-0.137,0.313-0.255,0.565c-3.457-0.525-5.122-2.767-5.928-6.107
		c-1.03,3.911-0.419,7.807-1.02,11.718c-0.397-1.764-1.597-2.522-3.119-2.325c-0.917,0.119-1.747,0.908-2.46,1.309
		c0-2.189,0.008-4.909-0.003-7.629c-0.009-2.242-0.279-2.508-2.465-2.522c-0.48-0.003-0.96,0-1.439-0.003
		c-2.186-0.012-2.398,0.228-2.064,2.343c0.312,1.977-2.557,5.919-4.531,6.202c-1.092,0.157-1.925-0.011-1.798-1.442
		c0.158-1.777,0.445-3.571,0.329-5.335c-0.113-1.727-0.67-3.423-1.018-5.136c-0.218-1.069-0.479-2.135-0.593-3.216
		c-0.079-0.749-0.047-1.548,0.13-2.277c0.255-1.05,0.895-1.681,2.134-1.66c3.297,0.055,6.596,0.012,9.894,0.018
		c2.592,0.005,2.587,0.012,2.584-2.583C329.922,458.678,329.98,458.214,330.004,457.853z"/>
<path id="B23.206" fill="#910000" d="M191.21,504.183c5.603,0,10.905,0,16.206,0c-0.11,0.181-0.221,0.362-0.331,0.543
		c0.675,0.837,1.396,1.643,2.004,2.527c0.241,0.35,0.319,0.874,0.319,1.319c0.007,7.137-0.031,14.273-0.003,21.41
		c0.005,1.278-0.488,1.661-1.712,1.629c-2.817-0.073-5.639-0.099-8.456-0.027c-2.663,0.068-5.327,0.227-7.981,0.462
		c-1.439,0.127-1.799-0.552-1.779-1.779c0.087-5.397,0.135-10.795,0.283-16.19c0.015-0.539,0.655-1.041,0.92-1.6
		c0.237-0.5,0.492-1.052,0.505-1.588C191.243,508.676,191.21,506.462,191.21,504.183z"/>
<path id="B23.217A" fill="#910000" d="M423.015,436.83c0-3.055,0.052-6.111-0.023-9.164c-0.035-1.428,0.357-2.06,1.917-2
		c2.874,0.111,5.755,0.091,8.631,0.028c1.865-0.041,3.725-0.361,5.588-0.361c2.094,0.001,4.196,0.16,6.275,0.412
		c0.331,0.04,0.792,0.926,0.797,1.424c0.029,3.176-0.091,6.352-0.086,9.529c0.004,3.227,0.061,6.455,0.163,9.68
		c0.044,1.38-0.386,1.82-1.862,1.804c-6.343-0.066-12.688,0.016-19.032,0.076c-2.21,0.021-2.38-0.123-2.364-2.259
		c0.024-3.057,0.006-6.114,0.006-9.17C423.021,436.83,423.018,436.83,423.015,436.83z"/>
<path id="B23.225" fill="#910000" d="M356.284,470.993c0-4.069-0.022-8.138,0.038-12.206c0.005-0.361,0.511-0.988,0.839-1.027
		c2.284-0.272,4.585-0.596,6.876-0.568c3.07,0.039,6.141,0.338,9.2,0.644c0.415,0.042,1.094,0.775,1.09,1.183
		c-0.056,6.216-0.21,12.431-0.329,18.647c-0.041,2.155-0.097,4.312-0.055,6.466c0.028,1.472-0.601,2.083-2.047,1.995
		c-4.491-0.272-8.988-0.458-13.471-0.817c-1.421-0.114-2.403-0.818-2.333-2.653c0.147-3.883,0.045-7.776,0.045-11.665
		C356.186,470.994,356.235,470.993,356.284,470.993z"/>
<path id="B23.220" fill="#910000" d="M397.307,505.708c0,5.555,0.001,11.058,0,16.56c-0.001,2.636,0.008,5.272-0.012,7.908
		c-0.018,2.427-0.353,2.774-2.869,2.68c-3.567-0.134-7.129-0.366-10.695-0.521c-1.136-0.049-2.29-0.096-3.411,0.051
		c-1.292,0.169-1.537-0.398-1.513-1.512c0.088-4.073,0.15-8.147,0.165-12.221c0.011-3.172-0.095-6.345-0.082-9.517
		c0.005-1.109,0.209-2.217,0.341-3.505c2.183,0,4.214,0.125,6.222-0.034c2.159-0.171,4.288-0.707,6.447-0.878
		c0.785-0.062,1.602,0.546,2.431,0.706C395.24,505.6,396.182,505.609,397.307,505.708z"/>
<path id="B23.208" fill="#910000" d="M168.885,518.076c0-3.893,0.039-7.787-0.023-11.679c-0.019-1.213,0.318-1.768,1.601-1.69
		c1.072,0.065,2.155-0.011,3.232-0.05c3.664-0.132,7.33-0.23,10.991-0.436c1.446-0.081,1.93,0.453,1.811,1.849
		c-0.101,1.19-0.071,2.395-0.042,3.592c0.026,1.084-0.38,2.277,0.831,3.101c0.225,0.153,0.173,0.784,0.169,1.193
		c-0.06,5.329-0.183,10.658-0.18,15.987c0.001,2.088-1.721,1.965-2.746,1.969c-4.955,0.017-9.912-0.203-14.863-0.439
		c-0.313-0.015-0.83-0.882-0.838-1.359c-0.068-4.012-0.038-8.025-0.038-12.038C168.822,518.076,168.854,518.076,168.885,518.076z"
/>
<path id="B23.214" fill="#910000" d="M484.122,491.003c3.773,0,7.547,0.038,11.319-0.022c1.219-0.019,1.714,0.318,1.693,1.618
		c-0.085,5.208-0.105,10.418-0.091,15.628c0.003,1.161-0.41,1.589-1.569,1.584c-7.777-0.03-15.555-0.019-23.332-0.02
		c-0.954,0-1.552-0.215-1.52-1.426c0.129-4.958,0.162-9.918,0.235-14.877c0.037-2.517,0.041-2.517,2.486-2.517
		c3.593,0,7.187,0,10.78,0C484.122,490.982,484.122,490.992,484.122,491.003z"/>
<path id="B23.215B" fill="#910000" d="M483.69,448.168c3.952,0,7.904,0.024,11.855-0.016c1.014-0.01,1.595,0.219,1.591,1.367
		c-0.02,4.716,0.011,9.433-0.006,14.149c-0.008,2.331-0.241,2.634-2.551,2.641c-7.375,0.025-14.751-0.053-22.126-0.022
		c-1.773,0.007-2.578-1.156-2.579-2.461c-0.004-4.901,0.219-9.804,0.473-14.701c0.018-0.344,0.97-0.905,1.497-0.915
		C475.791,448.132,479.741,448.168,483.69,448.168z"/>
<path id="B23.201B" fill="#910000" d="M313.56,532.068c0-4.028-0.005-8.378,0.001-12.729c0.006-4.256,0.037-8.512,0.022-12.768
		c-0.003-0.982,0.173-1.581,1.365-1.572c5.501,0.039,11.003,0.017,16.57,0.017c0,9.313,0,18.355,0,27.052
		C325.238,532.068,319.226,532.068,313.56,532.068z"/>
<path id="B23.218" fill="#910000" d="M400.258,518.823c0-3.949-0.034-7.9,0.042-11.847c0.01-0.516,0.562-1.45,0.9-1.467
		c4.826-0.242,9.66-0.312,14.487-0.533c1.771-0.081,2.242,0.607,2.207,2.298c-0.159,7.661-0.24,15.324-0.268,22.986
		c-0.006,1.51-0.402,2.075-2.022,2.094c-4.229,0.049-8.455,0.361-12.685,0.476c-2.606,0.071-2.862-0.275-2.854-2.872
		c0.012-3.712,0.003-7.423,0.003-11.135C400.13,518.823,400.194,518.823,400.258,518.823z"/>
<path fill="#808080" d="M252.621,457.575c-0.179,2.993-0.405,6.075-0.519,9.162c-0.029,0.796,0.512,1.632,0.419,2.405
		c-0.475,3.94,0.413,7.851,0.147,11.786c-0.081,1.193-0.356,1.707-1.644,1.69c-5.154-0.067-10.309-0.076-15.463-0.042
		c-1.192,0.008-1.549-0.44-1.539-1.584c0.065-7.432,0.116-14.864,0.092-22.296c-0.007-2.252,1.902-1.731,2.916-1.897
		c1.517-0.248,3.147,0.287,4.733,0.339c1.098,0.036,2.204-0.189,3.308-0.285c0.65-0.056,1.315-0.187,1.952-0.111
		C248.764,456.951,250.495,457.252,252.621,457.575z"/>
<path id="B23.205" fill="#910000" d="M213.898,460.263c1.829-0.185,3.404-0.286,3.264-2.452c-0.015-0.224,0.405-0.68,0.632-0.686
		c2.836-0.079,5.675-0.114,8.512-0.118c1.314-0.002,2.641-0.002,3.935,0.186c0.445,0.064,1.156,0.702,1.155,1.077
		c-0.016,8.447-0.113,16.895-0.2,25.342c-0.001,0.053-0.054,0.105-0.082,0.158c-0.101,0.061-0.2,0.167-0.306,0.174
		c-3.583,0.231-7.164,0.557-10.751,0.629c-1.795,0.036-3.608-0.343-5.389-0.664c-0.316-0.057-0.737-0.748-0.739-1.148
		C213.886,475.278,213.898,467.796,213.898,460.263z"/>
<path id="B23.222" fill="#910000" d="M376.043,532.322c-5.394,0-10.622,0-15.851,0c-1.124,0-1.182-0.765-1.177-1.604
		c0.026-3.659,0.051-7.318,0.059-10.977c0.01-4.608,0.002-9.217,0.002-14.115c0.817,0,1.51,0.046,2.195-0.01
		c1.285-0.104,2.422-0.248,3.737-0.893c1.526-0.749,3.853,0.087,5.821,0.323c0.42,0.05,0.767,0.626,1.195,0.708
		c3.159,0.601,4.17,1.75,4.166,4.898c-0.008,6.598-0.02,13.197-0.038,19.795C376.151,531.027,376.086,531.607,376.043,532.322z"/>
<path fill="#808080" d="M188.772,473.653c1.307-0.456,2.351-0.756,3.327-1.203c0.255-0.116,0.464-0.723,0.396-1.041
		c-0.063-0.298-0.51-0.711-0.807-0.728c-1.553-0.087-3.118-0.137-4.665-0.019c-0.333,0.025-0.814,0.765-0.879,1.225
		c-0.329,2.316-2.592,4.713-5.342,5.17c0-1.024-0.005-1.998,0.001-2.972c0.008-1.078,0.028-2.157,0.04-3.235
		c0.032-2.991,0.027-3.08-2.932-2.943c-1.581,0.073-1.981-0.639-2.609-1.963c-0.744-1.569-2.196-2.851-3.508-4.08
		c-0.632-0.592-2.138-0.584-2.375-1.189c-0.401-1.026-0.11-2.323-0.11-3.506c5.076-0.217,10.034-0.429,15.241-0.651
		c0,0.907,0.06,1.727-0.013,2.535c-0.139,1.541,0.449,2.132,2.047,2.097c3.47-0.077,6.943,0.01,10.415,0.038
		c1.536,0.012,2.698,1.144,2.561,2.65c-0.18,1.972-0.547,3.909-0.966,5.857c-0.685,3.187-0.382,6.617-0.269,9.936
		c0.159,4.679,0.248,4.701-4.347,4.628c-1.425-0.023-2.864-0.126-4.258-0.393c-0.387-0.074-0.893-0.859-0.907-1.33
		C188.731,479.606,188.772,476.674,188.772,473.653z"/>
<path id="B23.217B" fill="#910000" d="M434.825,449.394c3.29,0,6.579,0.01,9.869-0.006c0.869-0.004,1.488,0.066,1.463,1.235
		c-0.108,5.086-0.187,10.174-0.169,15.261c0.005,1.245-0.518,1.583-1.57,1.579c-6.586-0.026-13.172-0.043-19.757-0.095
		c-0.815-0.006-1.502-0.253-1.489-1.354c0.063-5.185,0.051-10.371,0.176-15.553c0.008-0.352,0.918-0.964,1.421-0.977
		c3.35-0.088,6.703-0.046,10.056-0.046C434.825,449.422,434.825,449.408,434.825,449.394z"/>
<path fill="#808080" d="M388.349,436.838c-3.188,0.043-3.495,0.405-3.112,3.378c0.023,0.178-0.022,0.455,0.074,0.519
		c2.342,1.538,0.825,3.856,1.143,5.79c0.191,1.162-0.001,2.382,0.028,3.575c0.023,0.945-0.275,1.446-1.333,1.426
		c-3.117-0.059-6.235-0.088-9.351-0.054c-0.965,0.01-1.265-0.349-1.256-1.259c0.076-7.43,0.132-14.861,0.181-22.291
		c0.006-0.918,0.251-1.489,1.327-1.43c3.799,0.207,7.6,0.36,11.396,0.603c0.318,0.02,0.856,0.557,0.863,0.864
		C388.375,430.878,388.349,433.802,388.349,436.838z"/>
<path fill="#808080" d="M212.398,425.741c0,5.057,0.005,9.835-0.002,14.612c-0.004,2.996-0.054,5.992-0.025,8.987
		c0.009,0.951-0.217,1.456-1.285,1.445c-3.344-0.035-6.689-0.013-10.229-0.013c0-1.946,0.004-3.77-0.001-5.594
		c-0.003-1.078-0.037-2.157-0.022-3.235c0.006-0.399-0.033-0.955,0.199-1.17c1.589-1.472,1.125-2.993,0.247-4.57
		c-0.14-0.251-0.273-0.549-0.275-0.826c-0.02-2.923-0.012-5.845-0.012-8.934C204.884,426.204,208.578,425.977,212.398,425.741z"/>
<path id="B23.217D" fill="#910000" d="M435.105,468.725c3.527,0,6.69-0.047,9.847,0.064c0.358,0.013,0.983,0.913,0.98,1.398
		c-0.033,4.882-0.178,9.762-0.274,14.643c-0.029,1.48-0.005,2.961-0.005,4.601c-3.305,0-6.397,0.039-9.485-0.052
		c-0.365-0.011-1.014-0.735-1.018-1.134C435.086,481.807,435.105,475.368,435.105,468.725z"/>
<path id="B23.217C" fill="#910000" d="M433.403,468.827c0,1.253,0.015,2.265-0.003,3.276c-0.088,5.072-0.225,10.144-0.252,15.217
		c-0.008,1.42-0.344,2.078-1.923,2.008c-2.62-0.116-5.249-0.032-8.181-0.032c0-2.976-0.012-5.824,0.003-8.672
		c0.018-3.356,0.106-6.713,0.069-10.068c-0.015-1.338,0.469-1.791,1.795-1.753C427.655,468.881,430.401,468.827,433.403,468.827z"
/>
<path fill="#808080" d="M407.167,426.797c3.241-0.103,6.508-0.162,9.769-0.331c1.349-0.07,1.753,0.388,1.749,1.735
		c-0.006,1.959,0.399,3.921,0.369,5.878c-0.047,3.093-0.265,6.187-0.533,9.27c-0.036,0.413-0.768,1.082-1.194,1.095
		c-3.055,0.093-6.116,0.076-9.172,0.003c-0.336-0.008-0.66-0.593-0.982-0.918c-0.03-0.031-0.005-0.116-0.005-0.176
		C407.167,437.976,407.167,432.6,407.167,426.797z"/>
<path fill="#808080" d="M266.155,525.831c-2.148,0-4.301,0.073-6.441-0.062c-0.426-0.027-1.143-0.846-1.149-1.307
		c-0.08-5.628-0.052-11.258-0.052-16.383c1.092-1.041,1.832-1.795,2.63-2.482c0.279-0.24,0.689-0.38,1.06-0.443
		c0.406-0.069,0.835,0.008,1.254,0.016c3.133,0.058,3.081,0.061,3.264,3.135c0.038,0.639,0.625,1.244,0.952,1.869
		c0.277,0.531,0.766,1.063,0.776,1.602c0.059,3.175,0.032,6.354-0.037,9.529c-0.012,0.536-0.277,1.12-0.578,1.584
		c-0.557,0.859-1.227,1.644-1.85,2.461C266.042,525.51,266.099,525.67,266.155,525.831z"/>
<path fill="#808080" d="M312.783,474.177c-2.644,0-5.339-0.041-8.031,0.02c-1.083,0.025-1.515-0.33-1.503-1.429
		c0.051-4.614,0.074-9.229,0.06-13.844c-0.004-1.148,0.39-1.596,1.582-1.542c2.275,0.102,4.558,0.023,6.832,0.141
		c0.511,0.027,1.379,0.496,1.433,0.859c0.431,2.882,0.974,5.791,0.942,8.686C314.073,469.36,313.282,471.644,312.783,474.177z"/>
<path fill="#808080" d="M168.843,452.008c0-5.049,0.023-9.782-0.01-14.514c-0.015-2.166,1.987-1.981,2.989-2.096
		c2.763-0.316,5.589-0.086,8.39-0.056c0.064,0.001,0.127,0.181,0.281,0.414c-2.011,0.465-1.808,1.699-1.422,3.325
		c0.366,1.538,0.203,3.21,0.212,4.824c0.012,2.219,0.032,4.442-0.104,6.655c-0.031,0.503-0.67,1.371-1.056,1.385
		C175.083,452.059,172.037,452.008,168.843,452.008z"/>
<path fill="#808080" d="M211.223,460.158c0,5.022,0.019,9.805-0.044,14.586c-0.004,0.314-0.633,0.876-0.984,0.887
		c-2.575,0.08-5.155,0.11-7.727-0.005c-0.433-0.019-1.059-0.755-1.192-1.265c-0.204-0.787,0.016-1.673-0.079-2.501
		c-0.165-1.437-0.612-2.862-0.614-4.292c-0.003-1.873,0.293-3.749,0.497-5.619c0.063-0.575,0.247-1.138,0.394-1.791
		C204.657,460.158,207.809,460.158,211.223,460.158z"/>
<path fill="#808080" d="M352.846,463.638c0.08,0.267,0.172,0.436,0.176,0.608c0.157,5.851,0.328,11.701,0.441,17.553
		c0.035,1.831-0.535,2.123-2.329,1.626c-1.118-0.309-2.298-0.393-2.899-0.49c-0.412-1.623-0.697-2.987-1.156-4.289
		c-0.066-0.188-1.366-0.236-1.427-0.083c-0.514,1.29-0.872,2.641-1.09,4.101c-0.829,0.573-1.377,0.231-1.35-1.019
		c0.019-0.899,0.074-1.8,0.034-2.696c-0.109-2.432-0.251-4.862-0.399-7.292c-0.068-1.115,0.335-1.684,1.541-1.614
		c3.467,0.203,2.907,0.094,4.153-3.146C349.337,464.834,350.665,463.74,352.846,463.638z"/>
<path fill="#808080" d="M177.399,481.642c0.969-2.963,0.638-3.945-1.586-4.929c-1.82,1.271-1.349,3.099-1.057,5.071
		c-1.704,0-3.314,0.11-4.886-0.083c-0.359-0.044-0.838-1.139-0.837-1.75c0.008-4.905,0.12-9.81,0.194-14.715
		c0.014-0.944,0.002-1.888,0.002-2.84c2.48,0.114,4.611,1.76,5.254,4.219c0.455,1.739,1.273,2.583,3.118,2.257
		c1.545-0.273,2.161,0.353,2.047,1.969c-0.231,3.265-0.346,6.539-0.47,9.811C179.132,481.897,178.498,482.007,177.399,481.642z"/>
<path fill="#808080" d="M257.091,295.826c0,2.851,0,5.806,0,8.883c-0.523,0.026-0.985,0.021-1.44,0.076
		c-2.597,0.319-5.186,0.854-7.79,0.935c-4.677,0.146-4.048,0.453-3.85-3.96c0.087-1.953,0.389-3.895,0.496-5.848
		c0.051-0.933,0.403-1.249,1.314-1.225c2.329,0.062,4.67-0.055,6.988,0.125C254.207,294.922,255.574,295.452,257.091,295.826z"/>
</svg>